<svg width="104" height="32" viewBox="0 0 104 32" fill="none" xmlns="http://www.w3.org/2000/svg">
<path d="M3.88116 24.2379C6.02467 24.2379 7.76233 22.5003 7.76233 20.3567C7.76233 18.2132 6.02467 16.4756 3.88116 16.4756C1.73766 16.4756 0 18.2132 0 20.3567C0 22.5003 1.73766 24.2379 3.88116 24.2379Z" fill="#413A34"/>
<path d="M31.0493 8.71301V0.950684L7.76233 0.950684V8.71301L31.0493 8.71301Z" fill="#413A34"/>
<path d="M7.76209 16.4756H15.5244L15.5244 8.71326H7.76209L7.76209 16.4756Z" fill="#413A34"/>
<path d="M7.76221 24.2377L7.76221 32H31.0492V24.2377H7.76221Z" fill="#413A34"/>
<path d="M31.0494 16.4756H23.2871V24.2379H31.0494V16.4756Z" fill="#413A34"/>
<path d="M50.1863 5.02787C50.1525 4.60465 49.9938 4.27454 49.7102 4.03753C49.4309 3.80053 49.0055 3.68203 48.4342 3.68203C48.0702 3.68203 47.7718 3.72646 47.5391 3.81534C47.3105 3.89999 47.1412 4.01637 47.0312 4.1645C46.9212 4.31263 46.864 4.48191 46.8598 4.67236C46.8513 4.82896 46.8788 4.97074 46.9423 5.0977C47.01 5.22044 47.1158 5.33259 47.2597 5.43416C47.4036 5.5315 47.5877 5.62038 47.812 5.70079C48.0364 5.78121 48.303 5.85315 48.6119 5.91664L49.6785 6.14518C50.3979 6.29754 51.0137 6.49857 51.5258 6.74827C52.0379 6.99797 52.4569 7.29211 52.7828 7.63068C53.1087 7.96503 53.3478 8.3417 53.5001 8.76068C53.6567 9.17967 53.7371 9.63675 53.7414 10.1319C53.7371 10.9868 53.5234 11.7105 53.1002 12.303C52.677 12.8956 52.0718 13.3463 51.2846 13.6552C50.5016 13.9642 49.5599 14.1187 48.4596 14.1187C47.3296 14.1187 46.3435 13.9515 45.5013 13.6172C44.6633 13.2828 44.0115 12.7686 43.546 12.0745C43.0847 11.3762 42.8519 10.4832 42.8477 9.39552H46.1996C46.2207 9.79334 46.3202 10.1277 46.4979 10.3986C46.6757 10.6694 46.9254 10.8747 47.247 11.0143C47.5729 11.154 47.9602 11.2238 48.4088 11.2238C48.7855 11.2238 49.1008 11.1773 49.3547 11.0842C49.6086 10.9911 49.8012 10.862 49.9324 10.6969C50.0636 10.5319 50.1313 10.3435 50.1355 10.1319C50.1313 9.93301 50.0657 9.75949 49.9387 9.61136C49.816 9.459 49.6129 9.32357 49.3293 9.20507C49.0457 9.08233 48.6627 8.96806 48.1802 8.86226L46.8852 8.58293C45.734 8.33323 44.8262 7.91636 44.1618 7.33231C43.5015 6.74403 43.1735 5.94203 43.1778 4.9263C43.1735 4.10102 43.3936 3.37942 43.838 2.76152C44.2866 2.13938 44.9066 1.6548 45.6981 1.30775C46.4937 0.960712 47.4058 0.787191 48.4342 0.787191C49.4838 0.787191 50.3916 0.962828 51.1576 1.3141C51.9236 1.66538 52.514 2.16055 52.9288 2.79961C53.3478 3.43444 53.5594 4.1772 53.5636 5.02787H50.1863Z" fill="#413A34"/>
<path d="M55.1348 13.9663V4.21529H58.6391V13.9663H55.1348ZM56.887 3.19955C56.413 3.19955 56.0067 3.04296 55.6681 2.72978C55.3295 2.41659 55.1602 2.03993 55.1602 1.59978C55.1602 1.15963 55.3295 0.78296 55.6681 0.469775C56.0067 0.156592 56.413 0 56.887 0C57.3652 0 57.7715 0.156592 58.1058 0.469775C58.4444 0.78296 58.6137 1.15963 58.6137 1.59978C58.6137 2.03993 58.4444 2.41659 58.1058 2.72978C57.7715 3.04296 57.3652 3.19955 56.887 3.19955Z" fill="#413A34"/>
<path d="M60.4246 13.9663V4.21529H63.7511V6.069H63.8527C64.0558 5.45956 64.4029 4.97708 64.8938 4.62158C65.3847 4.26607 65.9688 4.08832 66.6459 4.08832C67.3315 4.08832 67.9219 4.2703 68.4171 4.63427C68.9123 4.99401 69.2107 5.47225 69.3122 6.069H69.4138C69.5789 5.47225 69.9301 4.99401 70.4676 4.63427C71.0051 4.2703 71.6357 4.08832 72.3594 4.08832C73.2947 4.08832 74.0523 4.38881 74.6321 4.98978C75.2162 5.59076 75.5082 6.39064 75.5082 7.38945V13.9663H72.0039V8.27821C72.0039 7.85076 71.896 7.51641 71.6801 7.27518C71.4643 7.02971 71.1744 6.90697 70.8104 6.90697C70.4507 6.90697 70.165 7.02971 69.9534 7.27518C69.746 7.51641 69.6423 7.85076 69.6423 8.27821V13.9663H66.2904V8.27821C66.2904 7.85076 66.1825 7.51641 65.9667 7.27518C65.7508 7.02971 65.4609 6.90697 65.0969 6.90697C64.8557 6.90697 64.6483 6.96199 64.4748 7.07203C64.3013 7.18207 64.1659 7.34078 64.0685 7.54815C63.9754 7.7513 63.9288 7.99465 63.9288 8.27821V13.9663H60.4246Z" fill="#413A34"/>
<path d="M77.2365 17.6229V4.21529H80.7154V5.91664H80.7916C80.9185 5.58652 81.1048 5.28392 81.3502 5.00883C81.5957 4.7295 81.9004 4.50731 82.2644 4.34225C82.6284 4.17296 83.0516 4.08832 83.5341 4.08832C84.1774 4.08832 84.7889 4.25972 85.3687 4.60253C85.9528 4.94534 86.4268 5.48495 86.7907 6.22136C87.1589 6.95776 87.343 7.91424 87.343 9.0908C87.343 10.2166 87.1674 11.1498 86.8161 11.8904C86.4691 12.631 86.0035 13.1833 85.4195 13.5473C84.8397 13.9113 84.2027 14.0933 83.5087 14.0933C83.0516 14.0933 82.6432 14.0192 82.2834 13.8711C81.9279 13.7187 81.6232 13.5135 81.3693 13.2553C81.1196 12.9929 80.927 12.6966 80.7916 12.3665H80.7408V17.6229H77.2365ZM80.6646 9.0908C80.6646 9.56481 80.726 9.97533 80.8487 10.3224C80.9757 10.6652 81.1534 10.9318 81.382 11.1223C81.6147 11.3085 81.892 11.4016 82.2136 11.4016C82.5353 11.4016 82.8082 11.3106 83.0325 11.1286C83.2611 10.9424 83.4346 10.6779 83.5531 10.3351C83.6758 9.98803 83.7372 9.57327 83.7372 9.0908C83.7372 8.60832 83.6758 8.19568 83.5531 7.85287C83.4346 7.50583 83.2611 7.24132 83.0325 7.05933C82.8082 6.87312 82.5353 6.78001 82.2136 6.78001C81.892 6.78001 81.6147 6.87312 81.382 7.05933C81.1534 7.24132 80.9757 7.50583 80.8487 7.85287C80.726 8.19568 80.6646 8.60832 80.6646 9.0908Z" fill="#413A34"/>
<path d="M92.3154 0.964945V13.9663H88.8111V0.964945H92.3154Z" fill="#413A34"/>
<path d="M98.7732 14.1441C97.7321 14.1441 96.8348 13.9451 96.0815 13.5473C95.3324 13.1453 94.7547 12.5697 94.3484 11.8206C93.9464 11.0672 93.7453 10.1658 93.7453 9.11619C93.7453 8.10892 93.9485 7.22862 94.3548 6.47529C94.7611 5.72195 95.3345 5.13579 96.0752 4.7168C96.8158 4.29781 97.6898 4.08832 98.697 4.08832C99.4334 4.08832 100.1 4.20259 100.697 4.43113C101.293 4.65967 101.803 4.9919 102.227 5.42782C102.65 5.8595 102.976 6.3843 103.204 7.0022C103.433 7.6201 103.547 8.3163 103.547 9.0908V9.90338H94.8372V7.97349H100.322C100.318 7.69417 100.246 7.4487 100.106 7.23709C99.9709 7.02124 99.7868 6.85407 99.554 6.73557C99.3255 6.61284 99.0652 6.55147 98.7732 6.55147C98.4896 6.55147 98.2294 6.61284 97.9924 6.73557C97.7554 6.85407 97.5649 7.01913 97.421 7.23074C97.2813 7.44235 97.2073 7.68993 97.1988 7.97349V10.0557C97.1988 10.3689 97.2644 10.6483 97.3956 10.8937C97.5268 11.1392 97.7151 11.3318 97.9606 11.4714C98.2061 11.6111 98.5023 11.6809 98.8494 11.6809C99.0906 11.6809 99.3107 11.6471 99.5096 11.5793C99.7127 11.5116 99.8863 11.4143 100.03 11.2873C100.174 11.1561 100.28 10.9995 100.348 10.8175H103.547C103.437 11.4947 103.177 12.083 102.766 12.5824C102.356 13.0775 101.812 13.4627 101.135 13.7378C100.462 14.0086 99.6747 14.1441 98.7732 14.1441Z" fill="#413A34"/>
<path d="M51.621 22.9765C51.566 22.7522 51.4793 22.5554 51.3608 22.3861C51.2423 22.2126 51.0941 22.0665 50.9164 21.948C50.7429 21.8253 50.5397 21.7343 50.3069 21.6751C50.0784 21.6116 49.8266 21.5798 49.5515 21.5798C48.959 21.5798 48.4532 21.7216 48.0342 22.0052C47.6195 22.2887 47.3021 22.6971 47.082 23.2304C46.8661 23.7637 46.7582 24.407 46.7582 25.1603C46.7582 25.9221 46.8619 26.5739 47.0693 27.1156C47.2767 27.6573 47.5856 28.0721 47.9961 28.3598C48.4067 28.6476 48.9167 28.7915 49.5261 28.7915C50.0636 28.7915 50.5101 28.7132 50.8656 28.5566C51.2253 28.4001 51.4941 28.1779 51.6718 27.8901C51.8496 27.6023 51.9385 27.2637 51.9385 26.8743L52.5479 26.9378H49.5769V24.4239H55.3412V26.2268C55.3412 27.4118 55.0893 28.4254 54.5857 29.2677C54.0863 30.1056 53.3965 30.7489 52.5162 31.1975C51.6401 31.6419 50.6349 31.8641 49.5007 31.8641C48.2353 31.8641 47.1243 31.5954 46.1678 31.0579C45.2113 30.5204 44.4644 29.7544 43.9269 28.7598C43.3936 27.7652 43.127 26.5823 43.127 25.2111C43.127 24.1361 43.2899 23.1838 43.6158 22.3543C43.9459 21.5248 44.403 20.8244 44.987 20.253C45.5711 19.6775 46.2461 19.2437 47.0122 18.9516C47.7782 18.6554 48.5992 18.5073 49.4753 18.5073C50.2456 18.5073 50.9608 18.6173 51.621 18.8374C52.2855 19.0532 52.8717 19.3622 53.3795 19.7642C53.8916 20.162 54.3043 20.6339 54.6174 21.1799C54.9306 21.7259 55.1211 22.3247 55.1888 22.9765H51.621Z" fill="#413A34"/>
<path d="M57.0377 31.6864V21.9353H60.4404V23.7891H60.542C60.7198 23.1034 61.0012 22.6019 61.3863 22.2845C61.7757 21.9671 62.2307 21.8084 62.7512 21.8084C62.9036 21.8084 63.0538 21.8211 63.202 21.8465C63.3543 21.8676 63.5003 21.8994 63.64 21.9417V24.9318C63.4665 24.8725 63.2528 24.8281 62.9988 24.7984C62.7449 24.7688 62.5269 24.754 62.3449 24.754C62.0021 24.754 61.6932 24.8323 61.4181 24.9889C61.1472 25.1412 60.9335 25.3571 60.7769 25.6364C60.6203 25.9115 60.542 26.2353 60.542 26.6077V31.6864H57.0377Z" fill="#413A34"/>
<path d="M67.0522 31.8387C66.4301 31.8387 65.8799 31.7372 65.4017 31.534C64.9277 31.3266 64.5552 31.0134 64.2844 30.5945C64.0135 30.1755 63.8781 29.6422 63.8781 28.9947C63.8781 28.4614 63.9691 28.0065 64.151 27.6298C64.333 27.2489 64.587 26.9378 64.9128 26.6966C65.2387 26.4554 65.6175 26.2713 66.0492 26.1443C66.4851 26.0173 66.9549 25.9348 67.4585 25.8967C68.0045 25.8544 68.4425 25.8036 68.7726 25.7443C69.107 25.6809 69.3482 25.5941 69.4963 25.4841C69.6445 25.3698 69.7185 25.2195 69.7185 25.0333V25.0079C69.7185 24.754 69.6212 24.5593 69.4265 24.4239C69.2318 24.2885 68.9821 24.2207 68.6774 24.2207C68.343 24.2207 68.0701 24.2948 67.8585 24.4429C67.6511 24.5868 67.5262 24.809 67.4839 25.1095H64.259C64.3013 24.517 64.4896 23.971 64.824 23.4716C65.1625 22.968 65.6556 22.5659 66.3031 22.2655C66.9506 21.9607 67.759 21.8084 68.7282 21.8084C69.4265 21.8084 70.0529 21.8909 70.6073 22.056C71.1617 22.2168 71.6336 22.4432 72.023 22.7352C72.4123 23.023 72.7086 23.3616 72.9117 23.751C73.1191 24.1361 73.2228 24.5551 73.2228 25.0079V31.6864H69.9471V30.3151H69.8709C69.6762 30.6791 69.4392 30.9732 69.1599 31.1975C68.8848 31.4219 68.5695 31.5848 68.214 31.6864C67.8627 31.7879 67.4754 31.8387 67.0522 31.8387ZM68.1949 29.6295C68.4615 29.6295 68.7113 29.5745 68.944 29.4645C69.181 29.3544 69.3736 29.1957 69.5217 28.9883C69.6698 28.781 69.7439 28.5291 69.7439 28.2329V27.4203C69.6508 27.4584 69.5513 27.4944 69.4455 27.5282C69.344 27.5621 69.2339 27.5938 69.1154 27.6234C69.0012 27.6531 68.8784 27.6806 68.7472 27.706C68.6203 27.7314 68.4869 27.7546 68.3473 27.7758C68.0764 27.8181 67.8542 27.888 67.6807 27.9853C67.5114 28.0784 67.3845 28.1948 67.2998 28.3345C67.2194 28.4699 67.1792 28.6222 67.1792 28.7915C67.1792 29.0624 67.2744 29.2698 67.4649 29.4137C67.6553 29.5576 67.8987 29.6295 68.1949 29.6295Z" fill="#413A34"/>
<path d="M78.4014 26.2014V31.6864H74.8972V21.9353H78.2237V23.7891H78.3253C78.5369 23.1712 78.9093 22.6866 79.4426 22.3353C79.9801 21.984 80.6064 21.8084 81.3217 21.8084C82.0115 21.8084 82.6104 21.9671 83.1182 22.2845C83.6303 22.5977 84.026 23.0294 84.3054 23.5796C84.5889 24.1298 84.7286 24.7582 84.7244 25.465V31.6864H81.2201V26.2014C81.2243 25.7189 81.1016 25.3402 80.8519 25.0651C80.6064 24.79 80.2636 24.6524 79.8235 24.6524C79.5357 24.6524 79.2839 24.7159 79.068 24.8429C78.8564 24.9656 78.6935 25.1434 78.5792 25.3761C78.4649 25.6047 78.4057 25.8798 78.4014 26.2014Z" fill="#413A34"/>
<path d="M92.2693 21.9353V24.4747H85.8448V21.9353H92.2693ZM87.0891 19.5992H90.5934V28.5503C90.5934 28.6857 90.6167 28.8 90.6632 28.8931C90.7098 28.982 90.7817 29.0497 90.8791 29.0963C90.9764 29.1386 91.1013 29.1597 91.2536 29.1597C91.3594 29.1597 91.4821 29.147 91.6218 29.1216C91.7657 29.0963 91.8715 29.0751 91.9392 29.0582L92.4471 31.5213C92.2905 31.5679 92.0662 31.625 91.7742 31.6927C91.4864 31.7604 91.1436 31.8049 90.7457 31.826C89.9416 31.8684 89.2666 31.7858 88.7206 31.5784C88.1747 31.3668 87.7641 31.0346 87.4891 30.5818C87.214 30.1289 87.0806 29.5618 87.0891 28.8804V19.5992Z" fill="#413A34"/>
<path d="M102.508 25.1095H99.2827C99.2657 24.9106 99.1959 24.7392 99.0732 24.5953C98.9504 24.4514 98.7917 24.3414 98.597 24.2652C98.4066 24.1848 98.195 24.1446 97.9622 24.1446C97.6617 24.1446 97.4035 24.1996 97.1877 24.3096C96.9719 24.4197 96.8661 24.5762 96.8703 24.7794C96.8661 24.9233 96.9274 25.0566 97.0544 25.1793C97.1856 25.3021 97.4374 25.3973 97.8098 25.465L99.7905 25.8205C100.789 26.0025 101.532 26.3093 102.019 26.741C102.51 27.1685 102.757 27.7419 102.762 28.4614C102.757 29.1555 102.55 29.7586 102.139 30.2707C101.733 30.7786 101.177 31.1722 100.47 31.4515C99.7672 31.7266 98.9652 31.8641 98.0638 31.8641C96.574 31.8641 95.4081 31.5594 94.5658 30.95C93.7279 30.3405 93.2602 29.5364 93.1629 28.5376H96.6417C96.6883 28.8466 96.8407 29.0857 97.0988 29.255C97.3612 29.42 97.6913 29.5025 98.0892 29.5025C98.4108 29.5025 98.6753 29.4475 98.8827 29.3375C99.0943 29.2275 99.2022 29.0709 99.2065 28.8677C99.2022 28.6815 99.1091 28.5334 98.9271 28.4233C98.7494 28.3133 98.4701 28.2244 98.0892 28.1567L96.3624 27.852C95.3679 27.6785 94.623 27.3483 94.1278 26.8616C93.6326 26.3749 93.3872 25.7486 93.3914 24.9825C93.3872 24.3054 93.5649 23.7319 93.9247 23.2621C94.2886 22.7881 94.8071 22.4284 95.48 22.1829C96.1572 21.9332 96.9592 21.8084 97.886 21.8084C99.2953 21.8084 100.406 22.1004 101.219 22.6844C102.036 23.2685 102.465 24.0768 102.508 25.1095Z" fill="#413A34"/>
</svg>
