<svg width="1502" height="251" viewBox="0 0 1502 251" fill="none" xmlns="http://www.w3.org/2000/svg">
<path d="M1502 62.5625C1502 69.499 1496.4 75.125 1489.48 75.125C1482.57 75.125 1476.97 80.7476 1476.97 87.6875C1476.97 94.6274 1471.36 100.25 1464.45 100.25C1457.53 100.25 1451.93 105.873 1451.93 112.813C1451.93 119.752 1446.33 125.375 1439.42 125.375C1432.5 125.375 1426.9 119.749 1426.9 112.813C1426.9 105.876 1421.3 100.25 1414.38 100.25C1407.47 100.25 1401.87 105.873 1401.87 112.813C1401.87 119.752 1396.26 125.375 1389.35 125.375C1382.43 125.375 1376.83 130.998 1376.83 137.938C1376.83 144.877 1371.23 150.5 1364.31 150.5C1357.4 150.5 1351.8 144.874 1351.8 137.938C1351.8 131.001 1346.2 125.375 1339.28 125.375C1332.37 125.375 1326.77 130.998 1326.77 137.938C1326.77 144.877 1321.16 150.5 1314.25 150.5C1307.33 150.5 1301.73 156.123 1301.73 163.063C1301.73 170.002 1296.13 175.625 1289.22 175.625C1282.3 175.625 1276.7 169.999 1276.7 163.063C1276.7 156.126 1271.1 150.5 1264.18 150.5C1257.27 150.5 1251.67 156.123 1251.67 163.063C1251.67 170.002 1246.06 175.625 1239.15 175.625C1232.23 175.625 1226.63 181.248 1226.63 188.188C1226.63 195.127 1221.03 200.75 1214.11 200.75C1207.2 200.75 1201.6 206.373 1201.6 213.312C1201.6 220.252 1196 225.875 1189.08 225.875C1182.17 225.875 1176.57 220.249 1176.57 213.312C1176.57 206.376 1170.96 200.75 1164.05 200.75C1157.13 200.75 1151.53 195.124 1151.53 188.188C1151.53 181.251 1145.93 175.625 1139.01 175.625C1132.1 175.625 1126.5 181.248 1126.5 188.188C1126.5 195.127 1120.9 200.75 1113.98 200.75C1107.07 200.75 1101.47 206.373 1101.47 213.312C1101.47 220.252 1095.86 225.875 1088.95 225.875C1082.03 225.875 1076.43 231.498 1076.43 238.437C1076.43 245.377 1070.83 251 1063.91 251C1057 251 1051.4 245.374 1051.4 238.437C1051.4 231.501 1045.8 225.875 1038.88 225.875C1031.97 225.875 1026.37 220.249 1026.37 213.312C1026.37 206.376 1020.76 200.75 1013.85 200.75C1006.93 200.75 1001.33 206.373 1001.33 213.312C1001.33 220.252 995.731 225.875 988.815 225.875C981.899 225.875 976.3 220.249 976.3 213.312C976.3 206.376 970.697 200.75 963.782 200.75C956.866 200.75 951.267 206.373 951.267 213.312C951.267 220.252 945.664 225.875 938.748 225.875C931.833 225.875 926.233 231.498 926.233 238.437C926.233 245.377 920.63 251 913.715 251C906.799 251 901.2 245.374 901.2 238.437C901.2 231.501 895.597 225.875 888.682 225.875C881.766 225.875 876.167 231.498 876.167 238.437C876.167 245.377 870.564 251 863.648 251C856.733 251 851.133 245.374 851.133 238.437C851.133 231.501 845.53 225.875 838.615 225.875C831.699 225.875 826.1 220.249 826.1 213.312C826.1 206.376 820.497 200.75 813.582 200.75C806.666 200.75 801.067 206.373 801.067 213.312C801.067 220.252 795.464 225.875 788.548 225.875C781.633 225.875 776.033 220.249 776.033 213.312C776.033 206.376 770.431 200.75 763.515 200.75C756.599 200.75 751 195.124 751 188.188C751 181.251 745.397 175.625 738.482 175.625C731.566 175.625 725.967 181.248 725.967 188.188C725.967 195.127 720.364 200.75 713.448 200.75C706.533 200.75 700.933 206.373 700.933 213.312C700.933 220.252 695.33 225.875 688.415 225.875C681.499 225.875 675.9 220.249 675.9 213.312C675.9 206.376 670.297 200.75 663.382 200.75C656.466 200.75 650.867 206.373 650.867 213.312C650.867 220.252 645.264 225.875 638.348 225.875C631.433 225.875 625.833 231.498 625.833 238.437C625.833 245.377 620.231 251 613.315 251C606.399 251 600.8 245.374 600.8 238.437C600.8 231.501 595.197 225.875 588.282 225.875C581.366 225.875 575.767 231.498 575.767 238.437C575.767 245.377 570.164 251 563.248 251C556.333 251 550.733 245.374 550.733 238.437C550.733 231.501 545.13 225.875 538.215 225.875C531.299 225.875 525.7 220.249 525.7 213.312C525.7 206.376 520.097 200.75 513.182 200.75C506.266 200.75 500.667 206.373 500.667 213.312C500.667 220.252 495.064 225.875 488.148 225.875C481.233 225.875 475.633 220.249 475.633 213.312C475.633 206.376 470.03 200.75 463.115 200.75C456.199 200.75 450.6 206.373 450.6 213.312C450.6 220.252 444.997 225.875 438.082 225.875C431.166 225.875 425.567 231.498 425.567 238.437C425.567 245.377 419.964 251 413.048 251C406.133 251 400.533 245.374 400.533 238.437C400.533 231.501 394.931 225.875 388.015 225.875C381.099 225.875 375.5 231.498 375.5 238.437C375.5 245.377 369.897 251 362.982 251C356.066 251 350.467 245.374 350.467 238.437C350.467 231.501 344.864 225.875 337.948 225.875C331.033 225.875 325.433 220.249 325.433 213.312C325.433 206.376 319.83 200.75 312.915 200.75C305.999 200.75 300.4 206.373 300.4 213.312C300.4 220.252 294.797 225.875 287.882 225.875C280.966 225.875 275.367 220.249 275.367 213.312C275.367 206.376 269.764 200.75 262.848 200.75C255.933 200.75 250.333 195.124 250.333 188.188C250.333 181.251 244.73 175.625 237.815 175.625C230.899 175.625 225.3 181.248 225.3 188.188C225.3 195.127 219.697 200.75 212.782 200.75C205.866 200.75 200.267 206.373 200.267 213.312C200.267 220.252 194.664 225.875 187.748 225.875C180.833 225.875 175.233 220.249 175.233 213.312C175.233 206.376 169.63 200.75 162.715 200.75C155.799 200.75 150.2 206.373 150.2 213.312C150.2 220.252 144.597 225.875 137.682 225.875C130.766 225.875 125.167 220.249 125.167 213.312C125.167 206.376 119.564 200.75 112.648 200.75C105.733 200.75 100.133 206.373 100.133 213.312C100.133 220.252 94.5305 225.875 87.615 225.875C80.6994 225.875 75.1 231.498 75.1 238.437C75.1 245.377 69.4972 251 62.5816 251C55.6661 251 50.0667 245.374 50.0667 238.437C50.0667 231.501 44.4638 225.875 37.5483 225.875C30.6328 225.875 25.0333 231.498 25.0333 238.437C25.0333 245.377 19.4305 251 12.515 251C5.59943 251 0 245.374 0 238.437C0 231.501 5.60285 225.875 12.515 225.875C19.4271 225.875 25.0333 220.249 25.0333 213.312C25.0333 206.376 30.6362 200.75 37.5483 200.75C44.4604 200.75 50.0667 206.373 50.0667 213.312C50.0667 220.252 55.6695 225.875 62.5816 225.875C69.4937 225.875 75.1 220.249 75.1 213.312C75.1 206.376 80.7028 200.75 87.615 200.75C94.5271 200.75 100.133 195.124 100.133 188.188C100.133 181.251 105.736 175.625 112.648 175.625C119.56 175.625 125.167 181.248 125.167 188.188C125.167 195.127 130.77 200.75 137.682 200.75C144.594 200.75 150.2 195.124 150.2 188.188C150.2 181.251 155.803 175.625 162.715 175.625C169.627 175.625 175.233 181.248 175.233 188.188C175.233 195.127 180.836 200.75 187.748 200.75C194.66 200.75 200.267 195.124 200.267 188.188C200.267 181.251 205.87 175.625 212.782 175.625C219.694 175.625 225.3 169.999 225.3 163.063C225.3 156.126 230.903 150.5 237.815 150.5C244.727 150.5 250.333 156.123 250.333 163.063C250.333 170.002 255.936 175.625 262.848 175.625C269.76 175.625 275.367 181.248 275.367 188.188C275.367 195.127 280.97 200.75 287.882 200.75C294.794 200.75 300.4 195.124 300.4 188.188C300.4 181.251 306.003 175.625 312.915 175.625C319.827 175.625 325.433 181.248 325.433 188.188C325.433 195.127 331.036 200.75 337.948 200.75C344.86 200.75 350.467 206.373 350.467 213.312C350.467 220.252 356.07 225.875 362.982 225.875C369.894 225.875 375.5 220.249 375.5 213.312C375.5 206.376 381.103 200.75 388.015 200.75C394.927 200.75 400.533 206.373 400.533 213.312C400.533 220.252 406.136 225.875 413.048 225.875C419.96 225.875 425.567 220.249 425.567 213.312C425.567 206.376 431.17 200.75 438.082 200.75C444.994 200.75 450.6 195.124 450.6 188.188C450.6 181.251 456.203 175.625 463.115 175.625C470.027 175.625 475.633 181.248 475.633 188.188C475.633 195.127 481.236 200.75 488.148 200.75C495.06 200.75 500.667 195.124 500.667 188.188C500.667 181.251 506.27 175.625 513.182 175.625C520.094 175.625 525.7 181.248 525.7 188.188C525.7 195.127 531.303 200.75 538.215 200.75C545.127 200.75 550.733 206.373 550.733 213.312C550.733 220.252 556.336 225.875 563.248 225.875C570.16 225.875 575.767 220.249 575.767 213.312C575.767 206.376 581.37 200.75 588.282 200.75C595.194 200.75 600.8 206.373 600.8 213.312C600.8 220.252 606.403 225.875 613.315 225.875C620.227 225.875 625.833 220.249 625.833 213.312C625.833 206.376 631.436 200.75 638.348 200.75C645.26 200.75 650.867 195.124 650.867 188.188C650.867 181.251 656.47 175.625 663.382 175.625C670.294 175.625 675.9 181.248 675.9 188.188C675.9 195.127 681.503 200.75 688.415 200.75C695.327 200.75 700.933 195.124 700.933 188.188C700.933 181.251 706.536 175.625 713.448 175.625C720.36 175.625 725.967 169.999 725.967 163.063C725.967 156.126 731.57 150.5 738.482 150.5C745.394 150.5 751 156.123 751 163.063C751 170.002 756.603 175.625 763.515 175.625C770.427 175.625 776.033 181.248 776.033 188.188C776.033 195.127 781.636 200.75 788.548 200.75C795.46 200.75 801.067 195.124 801.067 188.188C801.067 181.251 806.67 175.625 813.582 175.625C820.494 175.625 826.1 181.248 826.1 188.188C826.1 195.127 831.703 200.75 838.615 200.75C845.527 200.75 851.133 206.373 851.133 213.312C851.133 220.252 856.736 225.875 863.648 225.875C870.56 225.875 876.167 220.249 876.167 213.312C876.167 206.376 881.769 200.75 888.682 200.75C895.594 200.75 901.2 206.373 901.2 213.312C901.2 220.252 906.803 225.875 913.715 225.875C920.627 225.875 926.233 220.249 926.233 213.312C926.233 206.376 931.836 200.75 938.748 200.75C945.66 200.75 951.267 195.124 951.267 188.188C951.267 181.251 956.87 175.625 963.782 175.625C970.694 175.625 976.3 181.248 976.3 188.188C976.3 195.127 981.903 200.75 988.815 200.75C995.727 200.75 1001.33 195.124 1001.33 188.188C1001.33 181.251 1006.94 175.625 1013.85 175.625C1020.76 175.625 1026.37 181.248 1026.37 188.188C1026.37 195.127 1031.97 200.75 1038.88 200.75C1045.79 200.75 1051.4 206.373 1051.4 213.312C1051.4 220.252 1057 225.875 1063.91 225.875C1070.83 225.875 1076.43 220.249 1076.43 213.312C1076.43 206.376 1082.04 200.75 1088.95 200.75C1095.86 200.75 1101.47 195.124 1101.47 188.188C1101.47 181.251 1107.07 175.625 1113.98 175.625C1120.89 175.625 1126.5 169.999 1126.5 163.063C1126.5 156.126 1132.1 150.5 1139.01 150.5C1145.93 150.5 1151.53 156.123 1151.53 163.063C1151.53 170.002 1157.14 175.625 1164.05 175.625C1170.96 175.625 1176.57 181.248 1176.57 188.188C1176.57 195.127 1182.17 200.75 1189.08 200.75C1195.99 200.75 1201.6 195.124 1201.6 188.188C1201.6 181.251 1207.2 175.625 1214.11 175.625C1221.03 175.625 1226.63 169.999 1226.63 163.063C1226.63 156.126 1232.24 150.5 1239.15 150.5C1246.06 150.5 1251.67 144.874 1251.67 137.938C1251.67 131.001 1257.27 125.375 1264.18 125.375C1271.09 125.375 1276.7 130.998 1276.7 137.938C1276.7 144.877 1282.3 150.5 1289.22 150.5C1296.13 150.5 1301.73 144.874 1301.73 137.938C1301.73 131.001 1307.34 125.375 1314.25 125.375C1321.16 125.375 1326.77 119.749 1326.77 112.813C1326.77 105.876 1332.37 100.25 1339.28 100.25C1346.19 100.25 1351.8 105.873 1351.8 112.813C1351.8 119.752 1357.4 125.375 1364.31 125.375C1371.23 125.375 1376.83 119.749 1376.83 112.813C1376.83 105.876 1382.44 100.25 1389.35 100.25C1396.26 100.25 1401.87 94.624 1401.87 87.6875C1401.87 80.751 1407.47 75.125 1414.38 75.125C1421.29 75.125 1426.9 80.7476 1426.9 87.6875C1426.9 94.6274 1432.5 100.25 1439.42 100.25C1446.33 100.25 1451.93 94.624 1451.93 87.6875C1451.93 80.751 1457.54 75.125 1464.45 75.125C1471.36 75.125 1476.97 69.499 1476.97 62.5625C1476.97 55.626 1482.57 50 1489.48 50C1496.39 50 1502 55.6226 1502 62.5625Z" fill="#D2F6FF"/>
<path d="M1502 37.5625C1502 44.499 1496.4 50.125 1489.48 50.125C1482.57 50.125 1476.97 55.7476 1476.97 62.6875C1476.97 69.6274 1471.36 75.25 1464.45 75.25C1457.53 75.25 1451.93 80.8726 1451.93 87.8125C1451.93 94.7524 1446.33 100.375 1439.42 100.375C1432.5 100.375 1426.9 94.749 1426.9 87.8125C1426.9 80.876 1421.3 75.25 1414.38 75.25C1407.47 75.25 1401.87 80.8726 1401.87 87.8125C1401.87 94.7524 1396.26 100.375 1389.35 100.375C1382.43 100.375 1376.83 105.998 1376.83 112.938C1376.83 119.877 1371.23 125.5 1364.31 125.5C1357.4 125.5 1351.8 119.874 1351.8 112.938C1351.8 106.001 1346.2 100.375 1339.28 100.375C1332.37 100.375 1326.77 105.998 1326.77 112.938C1326.77 119.877 1321.16 125.5 1314.25 125.5C1307.33 125.5 1301.73 131.123 1301.73 138.063C1301.73 145.002 1296.13 150.625 1289.22 150.625C1282.3 150.625 1276.7 144.999 1276.7 138.063C1276.7 131.126 1271.1 125.5 1264.18 125.5C1257.27 125.5 1251.67 131.123 1251.67 138.063C1251.67 145.002 1246.06 150.625 1239.15 150.625C1232.23 150.625 1226.63 156.248 1226.63 163.188C1226.63 170.127 1221.03 175.75 1214.11 175.75C1207.2 175.75 1201.6 181.373 1201.6 188.312C1201.6 195.252 1196 200.875 1189.08 200.875C1182.17 200.875 1176.57 195.249 1176.57 188.312C1176.57 181.376 1170.96 175.75 1164.05 175.75C1157.13 175.75 1151.53 170.124 1151.53 163.188C1151.53 156.251 1145.93 150.625 1139.01 150.625C1132.1 150.625 1126.5 156.248 1126.5 163.188C1126.5 170.127 1120.9 175.75 1113.98 175.75C1107.07 175.75 1101.47 181.373 1101.47 188.312C1101.47 195.252 1095.86 200.875 1088.95 200.875C1082.03 200.875 1076.43 206.498 1076.43 213.437C1076.43 220.377 1070.83 226 1063.91 226C1057 226 1051.4 220.374 1051.4 213.437C1051.4 206.501 1045.8 200.875 1038.88 200.875C1031.97 200.875 1026.37 195.249 1026.37 188.312C1026.37 181.376 1020.76 175.75 1013.85 175.75C1006.93 175.75 1001.33 181.373 1001.33 188.312C1001.33 195.252 995.731 200.875 988.815 200.875C981.899 200.875 976.3 195.249 976.3 188.312C976.3 181.376 970.697 175.75 963.782 175.75C956.866 175.75 951.267 181.373 951.267 188.312C951.267 195.252 945.664 200.875 938.748 200.875C931.833 200.875 926.233 206.498 926.233 213.437C926.233 220.377 920.63 226 913.715 226C906.799 226 901.2 220.374 901.2 213.437C901.2 206.501 895.597 200.875 888.682 200.875C881.766 200.875 876.167 206.498 876.167 213.437C876.167 220.377 870.564 226 863.648 226C856.733 226 851.133 220.374 851.133 213.437C851.133 206.501 845.53 200.875 838.615 200.875C831.699 200.875 826.1 195.249 826.1 188.312C826.1 181.376 820.497 175.75 813.582 175.75C806.666 175.75 801.067 181.373 801.067 188.312C801.067 195.252 795.464 200.875 788.548 200.875C781.633 200.875 776.033 195.249 776.033 188.312C776.033 181.376 770.431 175.75 763.515 175.75C756.599 175.75 751 170.124 751 163.188C751 156.251 745.397 150.625 738.482 150.625C731.566 150.625 725.967 156.248 725.967 163.188C725.967 170.127 720.364 175.75 713.448 175.75C706.533 175.75 700.933 181.373 700.933 188.312C700.933 195.252 695.33 200.875 688.415 200.875C681.499 200.875 675.9 195.249 675.9 188.312C675.9 181.376 670.297 175.75 663.382 175.75C656.466 175.75 650.867 181.373 650.867 188.312C650.867 195.252 645.264 200.875 638.348 200.875C631.433 200.875 625.833 206.498 625.833 213.437C625.833 220.377 620.231 226 613.315 226C606.399 226 600.8 220.374 600.8 213.437C600.8 206.501 595.197 200.875 588.282 200.875C581.366 200.875 575.767 206.498 575.767 213.437C575.767 220.377 570.164 226 563.248 226C556.333 226 550.733 220.374 550.733 213.437C550.733 206.501 545.13 200.875 538.215 200.875C531.299 200.875 525.7 195.249 525.7 188.312C525.7 181.376 520.097 175.75 513.182 175.75C506.266 175.75 500.667 181.373 500.667 188.312C500.667 195.252 495.064 200.875 488.148 200.875C481.233 200.875 475.633 195.249 475.633 188.312C475.633 181.376 470.03 175.75 463.115 175.75C456.199 175.75 450.6 181.373 450.6 188.312C450.6 195.252 444.997 200.875 438.082 200.875C431.166 200.875 425.567 206.498 425.567 213.437C425.567 220.377 419.964 226 413.048 226C406.133 226 400.533 220.374 400.533 213.437C400.533 206.501 394.931 200.875 388.015 200.875C381.099 200.875 375.5 206.498 375.5 213.437C375.5 220.377 369.897 226 362.982 226C356.066 226 350.467 220.374 350.467 213.437C350.467 206.501 344.864 200.875 337.948 200.875C331.033 200.875 325.433 195.249 325.433 188.312C325.433 181.376 319.83 175.75 312.915 175.75C305.999 175.75 300.4 181.373 300.4 188.312C300.4 195.252 294.797 200.875 287.882 200.875C280.966 200.875 275.367 195.249 275.367 188.312C275.367 181.376 269.764 175.75 262.848 175.75C255.933 175.75 250.333 170.124 250.333 163.188C250.333 156.251 244.73 150.625 237.815 150.625C230.899 150.625 225.3 156.248 225.3 163.188C225.3 170.127 219.697 175.75 212.782 175.75C205.866 175.75 200.267 181.373 200.267 188.312C200.267 195.252 194.664 200.875 187.748 200.875C180.833 200.875 175.233 195.249 175.233 188.312C175.233 181.376 169.63 175.75 162.715 175.75C155.799 175.75 150.2 181.373 150.2 188.312C150.2 195.252 144.597 200.875 137.682 200.875C130.766 200.875 125.167 195.249 125.167 188.312C125.167 181.376 119.564 175.75 112.648 175.75C105.733 175.75 100.133 181.373 100.133 188.312C100.133 195.252 94.5305 200.875 87.615 200.875C80.6994 200.875 75.1 206.498 75.1 213.437C75.1 220.377 69.4972 226 62.5816 226C55.6661 226 50.0667 220.374 50.0667 213.437C50.0667 206.501 44.4638 200.875 37.5483 200.875C30.6328 200.875 25.0333 206.498 25.0333 213.437C25.0333 220.377 19.4305 226 12.515 226C5.59943 226 0 220.374 0 213.437C0 206.501 5.60285 200.875 12.515 200.875C19.4271 200.875 25.0333 195.249 25.0333 188.312C25.0333 181.376 30.6362 175.75 37.5483 175.75C44.4604 175.75 50.0667 181.373 50.0667 188.312C50.0667 195.252 55.6695 200.875 62.5816 200.875C69.4937 200.875 75.1 195.249 75.1 188.312C75.1 181.376 80.7028 175.75 87.615 175.75C94.5271 175.75 100.133 170.124 100.133 163.188C100.133 156.251 105.736 150.625 112.648 150.625C119.56 150.625 125.167 156.248 125.167 163.188C125.167 170.127 130.77 175.75 137.682 175.75C144.594 175.75 150.2 170.124 150.2 163.188C150.2 156.251 155.803 150.625 162.715 150.625C169.627 150.625 175.233 156.248 175.233 163.188C175.233 170.127 180.836 175.75 187.748 175.75C194.66 175.75 200.267 170.124 200.267 163.188C200.267 156.251 205.87 150.625 212.782 150.625C219.694 150.625 225.3 144.999 225.3 138.063C225.3 131.126 230.903 125.5 237.815 125.5C244.727 125.5 250.333 131.123 250.333 138.063C250.333 145.002 255.936 150.625 262.848 150.625C269.76 150.625 275.367 156.248 275.367 163.188C275.367 170.127 280.97 175.75 287.882 175.75C294.794 175.75 300.4 170.124 300.4 163.188C300.4 156.251 306.003 150.625 312.915 150.625C319.827 150.625 325.433 156.248 325.433 163.188C325.433 170.127 331.036 175.75 337.948 175.75C344.86 175.75 350.467 181.373 350.467 188.312C350.467 195.252 356.07 200.875 362.982 200.875C369.894 200.875 375.5 195.249 375.5 188.312C375.5 181.376 381.103 175.75 388.015 175.75C394.927 175.75 400.533 181.373 400.533 188.312C400.533 195.252 406.136 200.875 413.048 200.875C419.96 200.875 425.567 195.249 425.567 188.312C425.567 181.376 431.17 175.75 438.082 175.75C444.994 175.75 450.6 170.124 450.6 163.188C450.6 156.251 456.203 150.625 463.115 150.625C470.027 150.625 475.633 156.248 475.633 163.188C475.633 170.127 481.236 175.75 488.148 175.75C495.06 175.75 500.667 170.124 500.667 163.188C500.667 156.251 506.27 150.625 513.182 150.625C520.094 150.625 525.7 156.248 525.7 163.188C525.7 170.127 531.303 175.75 538.215 175.75C545.127 175.75 550.733 181.373 550.733 188.312C550.733 195.252 556.336 200.875 563.248 200.875C570.16 200.875 575.767 195.249 575.767 188.312C575.767 181.376 581.37 175.75 588.282 175.75C595.194 175.75 600.8 181.373 600.8 188.312C600.8 195.252 606.403 200.875 613.315 200.875C620.227 200.875 625.833 195.249 625.833 188.312C625.833 181.376 631.436 175.75 638.348 175.75C645.26 175.75 650.867 170.124 650.867 163.188C650.867 156.251 656.47 150.625 663.382 150.625C670.294 150.625 675.9 156.248 675.9 163.188C675.9 170.127 681.503 175.75 688.415 175.75C695.327 175.75 700.933 170.124 700.933 163.188C700.933 156.251 706.536 150.625 713.448 150.625C720.36 150.625 725.967 144.999 725.967 138.063C725.967 131.126 731.57 125.5 738.482 125.5C745.394 125.5 751 131.123 751 138.063C751 145.002 756.603 150.625 763.515 150.625C770.427 150.625 776.033 156.248 776.033 163.188C776.033 170.127 781.636 175.75 788.548 175.75C795.46 175.75 801.067 170.124 801.067 163.188C801.067 156.251 806.67 150.625 813.582 150.625C820.494 150.625 826.1 156.248 826.1 163.188C826.1 170.127 831.703 175.75 838.615 175.75C845.527 175.75 851.133 181.373 851.133 188.312C851.133 195.252 856.736 200.875 863.648 200.875C870.56 200.875 876.167 195.249 876.167 188.312C876.167 181.376 881.769 175.75 888.682 175.75C895.594 175.75 901.2 181.373 901.2 188.312C901.2 195.252 906.803 200.875 913.715 200.875C920.627 200.875 926.233 195.249 926.233 188.312C926.233 181.376 931.836 175.75 938.748 175.75C945.66 175.75 951.267 170.124 951.267 163.188C951.267 156.251 956.87 150.625 963.782 150.625C970.694 150.625 976.3 156.248 976.3 163.188C976.3 170.127 981.903 175.75 988.815 175.75C995.727 175.75 1001.33 170.124 1001.33 163.188C1001.33 156.251 1006.94 150.625 1013.85 150.625C1020.76 150.625 1026.37 156.248 1026.37 163.188C1026.37 170.127 1031.97 175.75 1038.88 175.75C1045.79 175.75 1051.4 181.373 1051.4 188.312C1051.4 195.252 1057 200.875 1063.91 200.875C1070.83 200.875 1076.43 195.249 1076.43 188.312C1076.43 181.376 1082.04 175.75 1088.95 175.75C1095.86 175.75 1101.47 170.124 1101.47 163.188C1101.47 156.251 1107.07 150.625 1113.98 150.625C1120.89 150.625 1126.5 144.999 1126.5 138.063C1126.5 131.126 1132.1 125.5 1139.01 125.5C1145.93 125.5 1151.53 131.123 1151.53 138.063C1151.53 145.002 1157.14 150.625 1164.05 150.625C1170.96 150.625 1176.57 156.248 1176.57 163.188C1176.57 170.127 1182.17 175.75 1189.08 175.75C1195.99 175.75 1201.6 170.124 1201.6 163.188C1201.6 156.251 1207.2 150.625 1214.11 150.625C1221.03 150.625 1226.63 144.999 1226.63 138.063C1226.63 131.126 1232.24 125.5 1239.15 125.5C1246.06 125.5 1251.67 119.874 1251.67 112.938C1251.67 106.001 1257.27 100.375 1264.18 100.375C1271.09 100.375 1276.7 105.998 1276.7 112.938C1276.7 119.877 1282.3 125.5 1289.22 125.5C1296.13 125.5 1301.73 119.874 1301.73 112.938C1301.73 106.001 1307.34 100.375 1314.25 100.375C1321.16 100.375 1326.77 94.749 1326.77 87.8125C1326.77 80.876 1332.37 75.25 1339.28 75.25C1346.19 75.25 1351.8 80.8726 1351.8 87.8125C1351.8 94.7524 1357.4 100.375 1364.31 100.375C1371.23 100.375 1376.83 94.749 1376.83 87.8125C1376.83 80.876 1382.44 75.25 1389.35 75.25C1396.26 75.25 1401.87 69.624 1401.87 62.6875C1401.87 55.751 1407.47 50.125 1414.38 50.125C1421.29 50.125 1426.9 55.7476 1426.9 62.6875C1426.9 69.6274 1432.5 75.25 1439.42 75.25C1446.33 75.25 1451.93 69.624 1451.93 62.6875C1451.93 55.751 1457.54 50.125 1464.45 50.125C1471.36 50.125 1476.97 44.499 1476.97 37.5625C1476.97 30.626 1482.57 25 1489.48 25C1496.39 25 1502 30.6226 1502 37.5625Z" fill="#BBE3FC"/>
<path d="M1502 12.5625C1502 19.499 1496.4 25.125 1489.48 25.125C1482.57 25.125 1476.97 30.7476 1476.97 37.6875C1476.97 44.6274 1471.36 50.25 1464.45 50.25C1457.53 50.25 1451.93 55.8726 1451.93 62.8125C1451.93 69.7524 1446.33 75.375 1439.42 75.375C1432.5 75.375 1426.9 69.749 1426.9 62.8125C1426.9 55.876 1421.3 50.25 1414.38 50.25C1407.47 50.25 1401.87 55.8726 1401.87 62.8125C1401.87 69.7524 1396.26 75.375 1389.35 75.375C1382.43 75.375 1376.83 80.9976 1376.83 87.9375C1376.83 94.8774 1371.23 100.5 1364.31 100.5C1357.4 100.5 1351.8 94.874 1351.8 87.9375C1351.8 81.001 1346.2 75.375 1339.28 75.375C1332.37 75.375 1326.77 80.9976 1326.77 87.9375C1326.77 94.8774 1321.16 100.5 1314.25 100.5C1307.33 100.5 1301.73 106.123 1301.73 113.063C1301.73 120.002 1296.13 125.625 1289.22 125.625C1282.3 125.625 1276.7 119.999 1276.7 113.063C1276.7 106.126 1271.1 100.5 1264.18 100.5C1257.27 100.5 1251.67 106.123 1251.67 113.063C1251.67 120.002 1246.06 125.625 1239.15 125.625C1232.23 125.625 1226.63 131.248 1226.63 138.188C1226.63 145.127 1221.03 150.75 1214.11 150.75C1207.2 150.75 1201.6 156.373 1201.6 163.312C1201.6 170.252 1196 175.875 1189.08 175.875C1182.17 175.875 1176.57 170.249 1176.57 163.312C1176.57 156.376 1170.96 150.75 1164.05 150.75C1157.13 150.75 1151.53 145.124 1151.53 138.188C1151.53 131.251 1145.93 125.625 1139.01 125.625C1132.1 125.625 1126.5 131.248 1126.5 138.188C1126.5 145.127 1120.9 150.75 1113.98 150.75C1107.07 150.75 1101.47 156.373 1101.47 163.312C1101.47 170.252 1095.86 175.875 1088.95 175.875C1082.03 175.875 1076.43 181.498 1076.43 188.437C1076.43 195.377 1070.83 201 1063.91 201C1057 201 1051.4 195.374 1051.4 188.437C1051.4 181.501 1045.8 175.875 1038.88 175.875C1031.97 175.875 1026.37 170.249 1026.37 163.312C1026.37 156.376 1020.76 150.75 1013.85 150.75C1006.93 150.75 1001.33 156.373 1001.33 163.312C1001.33 170.252 995.731 175.875 988.815 175.875C981.899 175.875 976.3 170.249 976.3 163.312C976.3 156.376 970.697 150.75 963.782 150.75C956.866 150.75 951.267 156.373 951.267 163.312C951.267 170.252 945.664 175.875 938.748 175.875C931.833 175.875 926.233 181.498 926.233 188.437C926.233 195.377 920.63 201 913.715 201C906.799 201 901.2 195.374 901.2 188.437C901.2 181.501 895.597 175.875 888.682 175.875C881.766 175.875 876.167 181.498 876.167 188.437C876.167 195.377 870.564 201 863.648 201C856.733 201 851.133 195.374 851.133 188.437C851.133 181.501 845.53 175.875 838.615 175.875C831.699 175.875 826.1 170.249 826.1 163.312C826.1 156.376 820.497 150.75 813.582 150.75C806.666 150.75 801.067 156.373 801.067 163.312C801.067 170.252 795.464 175.875 788.548 175.875C781.633 175.875 776.033 170.249 776.033 163.312C776.033 156.376 770.431 150.75 763.515 150.75C756.599 150.75 751 145.124 751 138.188C751 131.251 745.397 125.625 738.482 125.625C731.566 125.625 725.967 131.248 725.967 138.188C725.967 145.127 720.364 150.75 713.448 150.75C706.533 150.75 700.933 156.373 700.933 163.312C700.933 170.252 695.33 175.875 688.415 175.875C681.499 175.875 675.9 170.249 675.9 163.312C675.9 156.376 670.297 150.75 663.382 150.75C656.466 150.75 650.867 156.373 650.867 163.312C650.867 170.252 645.264 175.875 638.348 175.875C631.433 175.875 625.833 181.498 625.833 188.437C625.833 195.377 620.231 201 613.315 201C606.399 201 600.8 195.374 600.8 188.437C600.8 181.501 595.197 175.875 588.282 175.875C581.366 175.875 575.767 181.498 575.767 188.437C575.767 195.377 570.164 201 563.248 201C556.333 201 550.733 195.374 550.733 188.437C550.733 181.501 545.13 175.875 538.215 175.875C531.299 175.875 525.7 170.249 525.7 163.312C525.7 156.376 520.097 150.75 513.182 150.75C506.266 150.75 500.667 156.373 500.667 163.312C500.667 170.252 495.064 175.875 488.148 175.875C481.233 175.875 475.633 170.249 475.633 163.312C475.633 156.376 470.03 150.75 463.115 150.75C456.199 150.75 450.6 156.373 450.6 163.312C450.6 170.252 444.997 175.875 438.082 175.875C431.166 175.875 425.567 181.498 425.567 188.437C425.567 195.377 419.964 201 413.048 201C406.133 201 400.533 195.374 400.533 188.437C400.533 181.501 394.931 175.875 388.015 175.875C381.099 175.875 375.5 181.498 375.5 188.437C375.5 195.377 369.897 201 362.982 201C356.066 201 350.467 195.374 350.467 188.437C350.467 181.501 344.864 175.875 337.948 175.875C331.033 175.875 325.433 170.249 325.433 163.312C325.433 156.376 319.83 150.75 312.915 150.75C305.999 150.75 300.4 156.373 300.4 163.312C300.4 170.252 294.797 175.875 287.882 175.875C280.966 175.875 275.367 170.249 275.367 163.312C275.367 156.376 269.764 150.75 262.848 150.75C255.933 150.75 250.333 145.124 250.333 138.188C250.333 131.251 244.73 125.625 237.815 125.625C230.899 125.625 225.3 131.248 225.3 138.188C225.3 145.127 219.697 150.75 212.782 150.75C205.866 150.75 200.267 156.373 200.267 163.312C200.267 170.252 194.664 175.875 187.748 175.875C180.833 175.875 175.233 170.249 175.233 163.312C175.233 156.376 169.63 150.75 162.715 150.75C155.799 150.75 150.2 156.373 150.2 163.312C150.2 170.252 144.597 175.875 137.682 175.875C130.766 175.875 125.167 170.249 125.167 163.312C125.167 156.376 119.564 150.75 112.648 150.75C105.733 150.75 100.133 156.373 100.133 163.312C100.133 170.252 94.5305 175.875 87.615 175.875C80.6994 175.875 75.1 181.498 75.1 188.437C75.1 195.377 69.4972 201 62.5816 201C55.6661 201 50.0667 195.374 50.0667 188.437C50.0667 181.501 44.4638 175.875 37.5483 175.875C30.6328 175.875 25.0333 181.498 25.0333 188.437C25.0333 195.377 19.4305 201 12.515 201C5.59943 201 0 195.374 0 188.437C0 181.501 5.60285 175.875 12.515 175.875C19.4271 175.875 25.0333 170.249 25.0333 163.312C25.0333 156.376 30.6362 150.75 37.5483 150.75C44.4604 150.75 50.0667 156.373 50.0667 163.312C50.0667 170.252 55.6695 175.875 62.5816 175.875C69.4937 175.875 75.1 170.249 75.1 163.312C75.1 156.376 80.7028 150.75 87.615 150.75C94.5271 150.75 100.133 145.124 100.133 138.188C100.133 131.251 105.736 125.625 112.648 125.625C119.56 125.625 125.167 131.248 125.167 138.188C125.167 145.127 130.77 150.75 137.682 150.75C144.594 150.75 150.2 145.124 150.2 138.188C150.2 131.251 155.803 125.625 162.715 125.625C169.627 125.625 175.233 131.248 175.233 138.188C175.233 145.127 180.836 150.75 187.748 150.75C194.66 150.75 200.267 145.124 200.267 138.188C200.267 131.251 205.87 125.625 212.782 125.625C219.694 125.625 225.3 119.999 225.3 113.063C225.3 106.126 230.903 100.5 237.815 100.5C244.727 100.5 250.333 106.123 250.333 113.063C250.333 120.002 255.936 125.625 262.848 125.625C269.76 125.625 275.367 131.248 275.367 138.188C275.367 145.127 280.97 150.75 287.882 150.75C294.794 150.75 300.4 145.124 300.4 138.188C300.4 131.251 306.003 125.625 312.915 125.625C319.827 125.625 325.433 131.248 325.433 138.188C325.433 145.127 331.036 150.75 337.948 150.75C344.86 150.75 350.467 156.373 350.467 163.312C350.467 170.252 356.07 175.875 362.982 175.875C369.894 175.875 375.5 170.249 375.5 163.312C375.5 156.376 381.103 150.75 388.015 150.75C394.927 150.75 400.533 156.373 400.533 163.312C400.533 170.252 406.136 175.875 413.048 175.875C419.96 175.875 425.567 170.249 425.567 163.312C425.567 156.376 431.17 150.75 438.082 150.75C444.994 150.75 450.6 145.124 450.6 138.188C450.6 131.251 456.203 125.625 463.115 125.625C470.027 125.625 475.633 131.248 475.633 138.188C475.633 145.127 481.236 150.75 488.148 150.75C495.06 150.75 500.667 145.124 500.667 138.188C500.667 131.251 506.27 125.625 513.182 125.625C520.094 125.625 525.7 131.248 525.7 138.188C525.7 145.127 531.303 150.75 538.215 150.75C545.127 150.75 550.733 156.373 550.733 163.312C550.733 170.252 556.336 175.875 563.248 175.875C570.16 175.875 575.767 170.249 575.767 163.312C575.767 156.376 581.37 150.75 588.282 150.75C595.194 150.75 600.8 156.373 600.8 163.312C600.8 170.252 606.403 175.875 613.315 175.875C620.227 175.875 625.833 170.249 625.833 163.312C625.833 156.376 631.436 150.75 638.348 150.75C645.26 150.75 650.867 145.124 650.867 138.188C650.867 131.251 656.47 125.625 663.382 125.625C670.294 125.625 675.9 131.248 675.9 138.188C675.9 145.127 681.503 150.75 688.415 150.75C695.327 150.75 700.933 145.124 700.933 138.188C700.933 131.251 706.536 125.625 713.448 125.625C720.36 125.625 725.967 119.999 725.967 113.063C725.967 106.126 731.57 100.5 738.482 100.5C745.394 100.5 751 106.123 751 113.063C751 120.002 756.603 125.625 763.515 125.625C770.427 125.625 776.033 131.248 776.033 138.188C776.033 145.127 781.636 150.75 788.548 150.75C795.46 150.75 801.067 145.124 801.067 138.188C801.067 131.251 806.67 125.625 813.582 125.625C820.494 125.625 826.1 131.248 826.1 138.188C826.1 145.127 831.703 150.75 838.615 150.75C845.527 150.75 851.133 156.373 851.133 163.312C851.133 170.252 856.736 175.875 863.648 175.875C870.56 175.875 876.167 170.249 876.167 163.312C876.167 156.376 881.769 150.75 888.682 150.75C895.594 150.75 901.2 156.373 901.2 163.312C901.2 170.252 906.803 175.875 913.715 175.875C920.627 175.875 926.233 170.249 926.233 163.312C926.233 156.376 931.836 150.75 938.748 150.75C945.66 150.75 951.267 145.124 951.267 138.188C951.267 131.251 956.87 125.625 963.782 125.625C970.694 125.625 976.3 131.248 976.3 138.188C976.3 145.127 981.903 150.75 988.815 150.75C995.727 150.75 1001.33 145.124 1001.33 138.188C1001.33 131.251 1006.94 125.625 1013.85 125.625C1020.76 125.625 1026.37 131.248 1026.37 138.188C1026.37 145.127 1031.97 150.75 1038.88 150.75C1045.79 150.75 1051.4 156.373 1051.4 163.312C1051.4 170.252 1057 175.875 1063.91 175.875C1070.83 175.875 1076.43 170.249 1076.43 163.312C1076.43 156.376 1082.04 150.75 1088.95 150.75C1095.86 150.75 1101.47 145.124 1101.47 138.188C1101.47 131.251 1107.07 125.625 1113.98 125.625C1120.89 125.625 1126.5 119.999 1126.5 113.063C1126.5 106.126 1132.1 100.5 1139.01 100.5C1145.93 100.5 1151.53 106.123 1151.53 113.063C1151.53 120.002 1157.14 125.625 1164.05 125.625C1170.96 125.625 1176.57 131.248 1176.57 138.188C1176.57 145.127 1182.17 150.75 1189.08 150.75C1195.99 150.75 1201.6 145.124 1201.6 138.188C1201.6 131.251 1207.2 125.625 1214.11 125.625C1221.03 125.625 1226.63 119.999 1226.63 113.063C1226.63 106.126 1232.24 100.5 1239.15 100.5C1246.06 100.5 1251.67 94.874 1251.67 87.9375C1251.67 81.001 1257.27 75.375 1264.18 75.375C1271.09 75.375 1276.7 80.9976 1276.7 87.9375C1276.7 94.8774 1282.3 100.5 1289.22 100.5C1296.13 100.5 1301.73 94.874 1301.73 87.9375C1301.73 81.001 1307.34 75.375 1314.25 75.375C1321.16 75.375 1326.77 69.749 1326.77 62.8125C1326.77 55.876 1332.37 50.25 1339.28 50.25C1346.19 50.25 1351.8 55.8726 1351.8 62.8125C1351.8 69.7524 1357.4 75.375 1364.31 75.375C1371.23 75.375 1376.83 69.749 1376.83 62.8125C1376.83 55.876 1382.44 50.25 1389.35 50.25C1396.26 50.25 1401.87 44.624 1401.87 37.6875C1401.87 30.751 1407.47 25.125 1414.38 25.125C1421.29 25.125 1426.9 30.7476 1426.9 37.6875C1426.9 44.6274 1432.5 50.25 1439.42 50.25C1446.33 50.25 1451.93 44.624 1451.93 37.6875C1451.93 30.751 1457.54 25.125 1464.45 25.125C1471.36 25.125 1476.97 19.499 1476.97 12.5625C1476.97 5.62602 1482.57 0 1489.48 0C1496.39 0 1502 5.62259 1502 12.5625Z" fill="#99BCD1"/>
</svg>
