<svg width="2000" height="434" viewBox="0 0 2000 434" fill="none" xmlns="http://www.w3.org/2000/svg">
<path d="M1999.95 16.5969C1999.95 25.761 1992.49 33.1938 1983.28 33.1938C1974.07 33.1938 1966.61 40.6221 1966.61 49.7907C1966.61 58.9593 1959.15 66.3876 1949.95 66.3876C1940.74 66.3876 1933.28 73.8159 1933.28 82.9845C1933.28 92.1531 1925.82 99.5814 1916.61 99.5814C1907.4 99.5814 1899.95 92.1486 1899.95 82.9845C1899.95 73.8204 1892.49 66.3876 1883.28 66.3876C1874.07 66.3876 1866.62 73.8159 1866.62 82.9845C1866.62 92.1531 1859.16 99.5814 1849.95 99.5814C1840.74 99.5814 1833.28 107.01 1833.28 116.178C1833.28 125.347 1825.82 132.775 1816.62 132.775C1807.41 132.775 1799.95 125.342 1799.95 116.178C1799.95 107.014 1792.49 99.5814 1783.28 99.5814C1774.07 99.5814 1766.62 107.01 1766.62 116.178C1766.62 125.347 1759.16 132.775 1749.95 132.775C1740.74 132.775 1733.29 140.203 1733.29 149.372C1733.29 158.541 1725.83 165.969 1716.62 165.969C1707.41 165.969 1699.95 158.536 1699.95 149.372C1699.95 140.208 1692.49 132.775 1683.29 132.775C1674.08 132.775 1666.62 140.203 1666.62 149.372C1666.62 158.541 1659.16 165.969 1649.95 165.969C1640.74 165.969 1633.29 173.397 1633.29 182.566C1633.29 191.735 1625.83 199.163 1616.62 199.163C1607.41 199.163 1599.96 206.591 1599.96 215.76C1599.96 224.928 1592.5 232.357 1583.29 232.357C1574.08 232.357 1566.62 224.924 1566.62 215.76C1566.62 206.596 1559.16 199.163 1549.96 199.163C1540.75 199.163 1533.29 191.73 1533.29 182.566C1533.29 173.402 1525.83 165.969 1516.62 165.969C1507.42 165.969 1499.96 173.397 1499.96 182.566C1499.96 191.735 1492.5 199.163 1483.29 199.163C1474.08 199.163 1466.63 206.591 1466.63 215.76C1466.63 224.928 1459.17 232.357 1449.96 232.357C1440.75 232.357 1433.29 239.785 1433.29 248.954C1433.29 258.122 1425.83 265.55 1416.63 265.55C1407.42 265.55 1399.96 258.118 1399.96 248.954C1399.96 239.789 1392.5 232.357 1383.29 232.357C1374.09 232.357 1366.63 224.924 1366.63 215.76C1366.63 206.596 1359.17 199.163 1349.96 199.163C1340.75 199.163 1333.3 206.591 1333.3 215.76C1333.3 224.928 1325.84 232.357 1316.63 232.357C1307.42 232.357 1299.96 224.924 1299.96 215.76C1299.96 206.596 1292.5 199.163 1283.3 199.163C1274.09 199.163 1266.63 206.591 1266.63 215.76C1266.63 224.928 1259.17 232.357 1249.96 232.357C1240.76 232.357 1233.3 239.785 1233.3 248.954C1233.3 258.122 1225.84 265.55 1216.63 265.55C1207.42 265.55 1199.97 258.118 1199.97 248.954C1199.97 239.789 1192.51 232.357 1183.3 232.357C1174.09 232.357 1166.64 239.785 1166.64 248.954C1166.64 258.122 1159.17 265.55 1149.97 265.55C1140.76 265.55 1133.3 258.118 1133.3 248.954C1133.3 239.789 1125.84 232.357 1116.63 232.357C1107.43 232.357 1099.97 224.924 1099.97 215.76C1099.97 206.596 1092.51 199.163 1083.3 199.163C1074.09 199.163 1066.64 206.591 1066.64 215.76C1066.64 224.928 1059.18 232.357 1049.97 232.357C1040.76 232.357 1033.31 224.924 1033.31 215.76C1033.31 206.596 1025.85 199.163 1016.64 199.163C1007.43 199.163 999.973 191.73 999.973 182.566C999.973 173.402 992.513 165.969 983.305 165.969C974.096 165.969 966.641 173.397 966.641 182.566C966.641 191.735 959.18 199.163 949.972 199.163C940.764 199.163 933.308 206.591 933.308 215.76C933.308 224.928 925.848 232.357 916.64 232.357C907.431 232.357 899.976 224.924 899.976 215.76C899.976 206.596 892.515 199.163 883.307 199.163C874.099 199.163 866.643 206.591 866.643 215.76C866.643 224.928 859.183 232.357 849.975 232.357C840.767 232.357 833.311 239.785 833.311 248.954C833.311 258.122 825.851 265.55 816.642 265.55C807.434 265.55 799.978 258.118 799.978 248.954C799.978 239.789 792.518 232.357 783.31 232.357C774.102 232.357 766.646 239.785 766.646 248.954C766.646 258.122 759.186 265.55 749.977 265.55C740.769 265.55 733.314 258.118 733.314 248.954C733.314 239.789 725.853 232.357 716.645 232.357C707.437 232.357 699.981 224.924 699.981 215.76C699.981 206.596 692.521 199.163 683.313 199.163C674.104 199.163 666.649 206.591 666.649 215.76C666.649 224.928 659.188 232.357 649.98 232.357C640.772 232.357 633.316 224.924 633.316 215.76C633.316 206.596 625.856 199.163 616.648 199.163C607.44 199.163 599.984 206.591 599.984 215.76C599.984 224.928 592.523 232.357 583.315 232.357C574.107 232.357 566.651 239.785 566.651 248.954C566.651 258.122 559.191 265.55 549.983 265.55C540.775 265.55 533.319 258.118 533.319 248.954C533.319 239.789 525.859 232.357 516.65 232.357C507.442 232.357 499.986 239.785 499.986 248.954C499.986 258.122 492.526 265.55 483.318 265.55C474.11 265.55 466.654 258.118 466.654 248.954C466.654 239.789 459.194 232.357 449.986 232.357C440.777 232.357 433.322 224.924 433.322 215.76C433.322 206.596 425.861 199.163 416.653 199.163C407.445 199.163 399.989 206.591 399.989 215.76C399.989 224.928 392.529 232.357 383.321 232.357C374.113 232.357 366.657 224.924 366.657 215.76C366.657 206.596 359.196 199.163 349.988 199.163C340.78 199.163 333.324 191.73 333.324 182.566C333.324 173.402 325.864 165.969 316.656 165.969C307.448 165.969 299.992 173.397 299.992 182.566C299.992 191.735 292.532 199.163 283.323 199.163C274.115 199.163 266.659 206.591 266.659 215.76C266.659 224.928 259.199 232.357 249.991 232.357C240.783 232.357 233.327 224.924 233.327 215.76C233.327 206.596 225.867 199.163 216.659 199.163C207.45 199.163 199.995 206.591 199.995 215.76C199.995 224.928 192.534 232.357 183.326 232.357C174.118 232.357 166.662 224.924 166.662 215.76C166.662 206.596 159.202 199.163 149.994 199.163C140.785 199.163 133.33 206.591 133.33 215.76C133.33 224.928 125.869 232.357 116.661 232.357C107.453 232.357 99.9973 239.785 99.9973 248.954C99.9973 258.122 92.537 265.55 83.3288 265.55C74.1206 265.55 66.6649 258.118 66.6649 248.954C66.6649 239.789 59.2046 232.357 49.9964 232.357C40.7882 232.357 33.3324 239.785 33.3324 248.954C33.3324 258.122 25.8721 265.55 16.6639 265.55C7.45576 265.55 0 258.118 0 248.954C0 239.789 7.46031 232.357 16.6639 232.357C25.8676 232.357 33.3324 224.924 33.3324 215.76C33.3324 206.596 40.7927 199.163 49.9964 199.163C59.2 199.163 66.6649 206.591 66.6649 215.76C66.6649 224.928 74.1252 232.357 83.3288 232.357C92.5324 232.357 99.9973 224.924 99.9973 215.76C99.9973 206.596 107.458 199.163 116.661 199.163C125.865 199.163 133.33 191.73 133.33 182.566C133.33 173.402 140.79 165.969 149.994 165.969C159.197 165.969 166.662 173.397 166.662 182.566C166.662 191.735 174.122 199.163 183.326 199.163C192.53 199.163 199.995 191.73 199.995 182.566C199.995 173.402 207.455 165.969 216.659 165.969C225.862 165.969 233.327 173.397 233.327 182.566C233.327 191.735 240.787 199.163 249.991 199.163C259.195 199.163 266.659 191.73 266.659 182.566C266.659 173.402 274.12 165.969 283.323 165.969C292.527 165.969 299.992 158.536 299.992 149.372C299.992 140.208 307.452 132.775 316.656 132.775C325.859 132.775 333.324 140.203 333.324 149.372C333.324 158.541 340.785 165.969 349.988 165.969C359.192 165.969 366.657 173.397 366.657 182.566C366.657 191.735 374.117 199.163 383.321 199.163C392.524 199.163 399.989 191.73 399.989 182.566C399.989 173.402 407.45 165.969 416.653 165.969C425.857 165.969 433.322 173.397 433.322 182.566C433.322 191.735 440.782 199.163 449.986 199.163C459.189 199.163 466.654 206.591 466.654 215.76C466.654 224.928 474.114 232.357 483.318 232.357C492.522 232.357 499.986 224.924 499.986 215.76C499.986 206.596 507.447 199.163 516.65 199.163C525.854 199.163 533.319 206.591 533.319 215.76C533.319 224.928 540.779 232.357 549.983 232.357C559.187 232.357 566.651 224.924 566.651 215.76C566.651 206.596 574.112 199.163 583.315 199.163C592.519 199.163 599.984 191.73 599.984 182.566C599.984 173.402 607.444 165.969 616.648 165.969C625.851 165.969 633.316 173.397 633.316 182.566C633.316 191.735 640.777 199.163 649.98 199.163C659.184 199.163 666.649 191.73 666.649 182.566C666.649 173.402 674.109 165.969 683.313 165.969C692.516 165.969 699.981 173.397 699.981 182.566C699.981 191.735 707.441 199.163 716.645 199.163C725.849 199.163 733.314 206.591 733.314 215.76C733.314 224.928 740.774 232.357 749.977 232.357C759.181 232.357 766.646 224.924 766.646 215.76C766.646 206.596 774.106 199.163 783.31 199.163C792.514 199.163 799.978 206.591 799.978 215.76C799.978 224.928 807.439 232.357 816.642 232.357C825.846 232.357 833.311 224.924 833.311 215.76C833.311 206.596 840.771 199.163 849.975 199.163C859.178 199.163 866.643 191.73 866.643 182.566C866.643 173.402 874.104 165.969 883.307 165.969C892.511 165.969 899.976 173.397 899.976 182.566C899.976 191.735 907.436 199.163 916.64 199.163C925.843 199.163 933.308 191.73 933.308 182.566C933.308 173.402 940.768 165.969 949.972 165.969C959.176 165.969 966.641 158.536 966.641 149.372C966.641 140.208 974.101 132.775 983.305 132.775C992.508 132.775 999.973 140.203 999.973 149.372C999.973 158.541 1007.43 165.969 1016.64 165.969C1025.84 165.969 1033.31 173.397 1033.31 182.566C1033.31 191.735 1040.77 199.163 1049.97 199.163C1059.17 199.163 1066.64 191.73 1066.64 182.566C1066.64 173.402 1074.1 165.969 1083.3 165.969C1092.51 165.969 1099.97 173.397 1099.97 182.566C1099.97 191.735 1107.43 199.163 1116.63 199.163C1125.84 199.163 1133.3 206.591 1133.3 215.76C1133.3 224.928 1140.76 232.357 1149.97 232.357C1159.17 232.357 1166.64 224.924 1166.64 215.76C1166.64 206.596 1174.1 199.163 1183.3 199.163C1192.5 199.163 1199.97 206.591 1199.97 215.76C1199.97 224.928 1207.43 232.357 1216.63 232.357C1225.84 232.357 1233.3 224.924 1233.3 215.76C1233.3 206.596 1240.76 199.163 1249.96 199.163C1259.17 199.163 1266.63 191.73 1266.63 182.566C1266.63 173.402 1274.09 165.969 1283.3 165.969C1292.5 165.969 1299.96 173.397 1299.96 182.566C1299.96 191.735 1307.43 199.163 1316.63 199.163C1325.83 199.163 1333.3 191.73 1333.3 182.566C1333.3 173.402 1340.76 165.969 1349.96 165.969C1359.16 165.969 1366.63 173.397 1366.63 182.566C1366.63 191.735 1374.09 199.163 1383.29 199.163C1392.5 199.163 1399.96 206.591 1399.96 215.76C1399.96 224.928 1407.42 232.357 1416.63 232.357C1425.83 232.357 1433.29 224.924 1433.29 215.76C1433.29 206.596 1440.75 199.163 1449.96 199.163C1459.16 199.163 1466.63 191.73 1466.63 182.566C1466.63 173.402 1474.09 165.969 1483.29 165.969C1492.49 165.969 1499.96 158.536 1499.96 149.372C1499.96 140.208 1507.42 132.775 1516.62 132.775C1525.83 132.775 1533.29 140.203 1533.29 149.372C1533.29 158.541 1540.75 165.969 1549.96 165.969C1559.16 165.969 1566.62 173.397 1566.62 182.566C1566.62 191.735 1574.08 199.163 1583.29 199.163C1592.49 199.163 1599.96 191.73 1599.96 182.566C1599.96 173.402 1607.42 165.969 1616.62 165.969C1625.82 165.969 1633.29 158.536 1633.29 149.372C1633.29 140.208 1640.75 132.775 1649.95 132.775C1659.16 132.775 1666.62 125.342 1666.62 116.178C1666.62 107.014 1674.08 99.5814 1683.29 99.5814C1692.49 99.5814 1699.95 107.01 1699.95 116.178C1699.95 125.347 1707.41 132.775 1716.62 132.775C1725.82 132.775 1733.29 125.342 1733.29 116.178C1733.29 107.014 1740.75 99.5814 1749.95 99.5814C1759.15 99.5814 1766.62 92.1486 1766.62 82.9845C1766.62 73.8204 1774.08 66.3876 1783.28 66.3876C1792.49 66.3876 1799.95 73.8159 1799.95 82.9845C1799.95 92.1531 1807.41 99.5814 1816.62 99.5814C1825.82 99.5814 1833.28 92.1486 1833.28 82.9845C1833.28 73.8204 1840.74 66.3876 1849.95 66.3876C1859.15 66.3876 1866.62 58.9548 1866.62 49.7907C1866.62 40.6266 1874.08 33.1938 1883.28 33.1938C1892.48 33.1938 1899.95 40.6221 1899.95 49.7907C1899.95 58.9593 1907.41 66.3876 1916.61 66.3876C1925.82 66.3876 1933.28 58.9548 1933.28 49.7907C1933.28 40.6266 1940.74 33.1938 1949.95 33.1938C1959.15 33.1938 1966.61 25.761 1966.61 16.5969C1966.61 7.4328 1974.07 0 1983.28 0C1992.48 0 1999.95 7.42827 1999.95 16.5969Z" fill="white"/>
<path d="M1999.95 50.4836C1999.95 59.6477 1992.49 67.0805 1983.28 67.0805C1974.07 67.0805 1966.61 74.5088 1966.61 83.6774C1966.61 92.8461 1959.15 100.274 1949.95 100.274C1940.74 100.274 1933.28 107.703 1933.28 116.871C1933.28 126.04 1925.82 133.468 1916.61 133.468C1907.4 133.468 1899.95 126.035 1899.95 116.871C1899.95 107.707 1892.49 100.274 1883.28 100.274C1874.07 100.274 1866.62 107.703 1866.62 116.871C1866.62 126.04 1859.16 133.468 1849.95 133.468C1840.74 133.468 1833.28 140.896 1833.28 150.065C1833.28 159.234 1825.82 166.662 1816.62 166.662C1807.41 166.662 1799.95 159.229 1799.95 150.065C1799.95 140.901 1792.49 133.468 1783.28 133.468C1774.07 133.468 1766.62 140.896 1766.62 150.065C1766.62 159.234 1759.16 166.662 1749.95 166.662C1740.74 166.662 1733.29 174.09 1733.29 183.259C1733.29 192.427 1725.83 199.856 1716.62 199.856C1707.41 199.856 1699.95 192.423 1699.95 183.259C1699.95 174.095 1692.49 166.662 1683.29 166.662C1674.08 166.662 1666.62 174.09 1666.62 183.259C1666.62 192.427 1659.16 199.856 1649.95 199.856C1640.74 199.856 1633.29 207.284 1633.29 216.453C1633.29 225.621 1625.83 233.05 1616.62 233.05C1607.41 233.05 1599.96 240.478 1599.96 249.646C1599.96 258.815 1592.5 266.243 1583.29 266.243C1574.08 266.243 1566.62 258.811 1566.62 249.646C1566.62 240.482 1559.16 233.05 1549.96 233.05C1540.75 233.05 1533.29 225.617 1533.29 216.453C1533.29 207.289 1525.83 199.856 1516.62 199.856C1507.42 199.856 1499.96 207.284 1499.96 216.453C1499.96 225.621 1492.5 233.05 1483.29 233.05C1474.08 233.05 1466.63 240.478 1466.63 249.646C1466.63 258.815 1459.17 266.243 1449.96 266.243C1440.75 266.243 1433.29 273.672 1433.29 282.84C1433.29 292.009 1425.83 299.437 1416.63 299.437C1407.42 299.437 1399.96 292.004 1399.96 282.84C1399.96 273.676 1392.5 266.243 1383.29 266.243C1374.09 266.243 1366.63 258.811 1366.63 249.646C1366.63 240.482 1359.17 233.05 1349.96 233.05C1340.75 233.05 1333.3 240.478 1333.3 249.646C1333.3 258.815 1325.84 266.243 1316.63 266.243C1307.42 266.243 1299.96 258.811 1299.96 249.646C1299.96 240.482 1292.5 233.05 1283.3 233.05C1274.09 233.05 1266.63 240.478 1266.63 249.646C1266.63 258.815 1259.17 266.243 1249.96 266.243C1240.76 266.243 1233.3 273.672 1233.3 282.84C1233.3 292.009 1225.84 299.437 1216.63 299.437C1207.42 299.437 1199.97 292.004 1199.97 282.84C1199.97 273.676 1192.51 266.243 1183.3 266.243C1174.09 266.243 1166.64 273.672 1166.64 282.84C1166.64 292.009 1159.17 299.437 1149.97 299.437C1140.76 299.437 1133.3 292.004 1133.3 282.84C1133.3 273.676 1125.84 266.243 1116.63 266.243C1107.43 266.243 1099.97 258.811 1099.97 249.646C1099.97 240.482 1092.51 233.05 1083.3 233.05C1074.09 233.05 1066.64 240.478 1066.64 249.646C1066.64 258.815 1059.18 266.243 1049.97 266.243C1040.76 266.243 1033.31 258.811 1033.31 249.646C1033.31 240.482 1025.85 233.05 1016.64 233.05C1007.43 233.05 999.973 225.617 999.973 216.453C999.973 207.289 992.513 199.856 983.305 199.856C974.096 199.856 966.641 207.284 966.641 216.453C966.641 225.621 959.18 233.05 949.972 233.05C940.764 233.05 933.308 240.478 933.308 249.646C933.308 258.815 925.848 266.243 916.64 266.243C907.431 266.243 899.976 258.811 899.976 249.646C899.976 240.482 892.515 233.05 883.307 233.05C874.099 233.05 866.643 240.478 866.643 249.646C866.643 258.815 859.183 266.243 849.975 266.243C840.767 266.243 833.311 273.672 833.311 282.84C833.311 292.009 825.851 299.437 816.642 299.437C807.434 299.437 799.978 292.004 799.978 282.84C799.978 273.676 792.518 266.243 783.31 266.243C774.102 266.243 766.646 273.672 766.646 282.84C766.646 292.009 759.186 299.437 749.977 299.437C740.769 299.437 733.314 292.004 733.314 282.84C733.314 273.676 725.853 266.243 716.645 266.243C707.437 266.243 699.981 258.811 699.981 249.646C699.981 240.482 692.521 233.05 683.313 233.05C674.104 233.05 666.649 240.478 666.649 249.646C666.649 258.815 659.188 266.243 649.98 266.243C640.772 266.243 633.316 258.811 633.316 249.646C633.316 240.482 625.856 233.05 616.648 233.05C607.44 233.05 599.984 240.478 599.984 249.646C599.984 258.815 592.523 266.243 583.315 266.243C574.107 266.243 566.651 273.672 566.651 282.84C566.651 292.009 559.191 299.437 549.983 299.437C540.775 299.437 533.319 292.004 533.319 282.84C533.319 273.676 525.859 266.243 516.65 266.243C507.442 266.243 499.986 273.672 499.986 282.84C499.986 292.009 492.526 299.437 483.318 299.437C474.11 299.437 466.654 292.004 466.654 282.84C466.654 273.676 459.194 266.243 449.986 266.243C440.777 266.243 433.322 258.811 433.322 249.646C433.322 240.482 425.861 233.05 416.653 233.05C407.445 233.05 399.989 240.478 399.989 249.646C399.989 258.815 392.529 266.243 383.321 266.243C374.113 266.243 366.657 258.811 366.657 249.646C366.657 240.482 359.196 233.05 349.988 233.05C340.78 233.05 333.324 225.617 333.324 216.453C333.324 207.289 325.864 199.856 316.656 199.856C307.448 199.856 299.992 207.284 299.992 216.453C299.992 225.621 292.532 233.05 283.323 233.05C274.115 233.05 266.659 240.478 266.659 249.646C266.659 258.815 259.199 266.243 249.991 266.243C240.783 266.243 233.327 258.811 233.327 249.646C233.327 240.482 225.867 233.05 216.659 233.05C207.45 233.05 199.995 240.478 199.995 249.646C199.995 258.815 192.534 266.243 183.326 266.243C174.118 266.243 166.662 258.811 166.662 249.646C166.662 240.482 159.202 233.05 149.994 233.05C140.785 233.05 133.33 240.478 133.33 249.646C133.33 258.815 125.869 266.243 116.661 266.243C107.453 266.243 99.9973 273.672 99.9973 282.84C99.9973 292.009 92.537 299.437 83.3288 299.437C74.1206 299.437 66.6649 292.004 66.6649 282.84C66.6649 273.676 59.2046 266.243 49.9964 266.243C40.7882 266.243 33.3324 273.672 33.3324 282.84C33.3324 292.009 25.8721 299.437 16.6639 299.437C7.45576 299.437 0 292.004 0 282.84C0 273.676 7.46031 266.243 16.6639 266.243C25.8676 266.243 33.3324 258.811 33.3324 249.646C33.3324 240.482 40.7927 233.05 49.9964 233.05C59.2 233.05 66.6649 240.478 66.6649 249.646C66.6649 258.815 74.1252 266.243 83.3288 266.243C92.5324 266.243 99.9973 258.811 99.9973 249.646C99.9973 240.482 107.458 233.05 116.661 233.05C125.865 233.05 133.33 225.617 133.33 216.453C133.33 207.289 140.79 199.856 149.994 199.856C159.197 199.856 166.662 207.284 166.662 216.453C166.662 225.621 174.122 233.05 183.326 233.05C192.53 233.05 199.995 225.617 199.995 216.453C199.995 207.289 207.455 199.856 216.659 199.856C225.862 199.856 233.327 207.284 233.327 216.453C233.327 225.621 240.787 233.05 249.991 233.05C259.195 233.05 266.659 225.617 266.659 216.453C266.659 207.289 274.12 199.856 283.323 199.856C292.527 199.856 299.992 192.423 299.992 183.259C299.992 174.095 307.452 166.662 316.656 166.662C325.859 166.662 333.324 174.09 333.324 183.259C333.324 192.427 340.785 199.856 349.988 199.856C359.192 199.856 366.657 207.284 366.657 216.453C366.657 225.621 374.117 233.05 383.321 233.05C392.524 233.05 399.989 225.617 399.989 216.453C399.989 207.289 407.45 199.856 416.653 199.856C425.857 199.856 433.322 207.284 433.322 216.453C433.322 225.621 440.782 233.05 449.986 233.05C459.189 233.05 466.654 240.478 466.654 249.646C466.654 258.815 474.114 266.243 483.318 266.243C492.522 266.243 499.986 258.811 499.986 249.646C499.986 240.482 507.447 233.05 516.65 233.05C525.854 233.05 533.319 240.478 533.319 249.646C533.319 258.815 540.779 266.243 549.983 266.243C559.187 266.243 566.651 258.811 566.651 249.646C566.651 240.482 574.112 233.05 583.315 233.05C592.519 233.05 599.984 225.617 599.984 216.453C599.984 207.289 607.444 199.856 616.648 199.856C625.851 199.856 633.316 207.284 633.316 216.453C633.316 225.621 640.777 233.05 649.98 233.05C659.184 233.05 666.649 225.617 666.649 216.453C666.649 207.289 674.109 199.856 683.313 199.856C692.516 199.856 699.981 207.284 699.981 216.453C699.981 225.621 707.441 233.05 716.645 233.05C725.849 233.05 733.314 240.478 733.314 249.646C733.314 258.815 740.774 266.243 749.977 266.243C759.181 266.243 766.646 258.811 766.646 249.646C766.646 240.482 774.106 233.05 783.31 233.05C792.514 233.05 799.978 240.478 799.978 249.646C799.978 258.815 807.439 266.243 816.642 266.243C825.846 266.243 833.311 258.811 833.311 249.646C833.311 240.482 840.771 233.05 849.975 233.05C859.178 233.05 866.643 225.617 866.643 216.453C866.643 207.289 874.104 199.856 883.307 199.856C892.511 199.856 899.976 207.284 899.976 216.453C899.976 225.621 907.436 233.05 916.64 233.05C925.843 233.05 933.308 225.617 933.308 216.453C933.308 207.289 940.768 199.856 949.972 199.856C959.176 199.856 966.641 192.423 966.641 183.259C966.641 174.095 974.101 166.662 983.305 166.662C992.508 166.662 999.973 174.09 999.973 183.259C999.973 192.427 1007.43 199.856 1016.64 199.856C1025.84 199.856 1033.31 207.284 1033.31 216.453C1033.31 225.621 1040.77 233.05 1049.97 233.05C1059.17 233.05 1066.64 225.617 1066.64 216.453C1066.64 207.289 1074.1 199.856 1083.3 199.856C1092.51 199.856 1099.97 207.284 1099.97 216.453C1099.97 225.621 1107.43 233.05 1116.63 233.05C1125.84 233.05 1133.3 240.478 1133.3 249.646C1133.3 258.815 1140.76 266.243 1149.97 266.243C1159.17 266.243 1166.64 258.811 1166.64 249.646C1166.64 240.482 1174.1 233.05 1183.3 233.05C1192.5 233.05 1199.97 240.478 1199.97 249.646C1199.97 258.815 1207.43 266.243 1216.63 266.243C1225.84 266.243 1233.3 258.811 1233.3 249.646C1233.3 240.482 1240.76 233.05 1249.96 233.05C1259.17 233.05 1266.63 225.617 1266.63 216.453C1266.63 207.289 1274.09 199.856 1283.3 199.856C1292.5 199.856 1299.96 207.284 1299.96 216.453C1299.96 225.621 1307.43 233.05 1316.63 233.05C1325.83 233.05 1333.3 225.617 1333.3 216.453C1333.3 207.289 1340.76 199.856 1349.96 199.856C1359.16 199.856 1366.63 207.284 1366.63 216.453C1366.63 225.621 1374.09 233.05 1383.29 233.05C1392.5 233.05 1399.96 240.478 1399.96 249.646C1399.96 258.815 1407.42 266.243 1416.63 266.243C1425.83 266.243 1433.29 258.811 1433.29 249.646C1433.29 240.482 1440.75 233.05 1449.96 233.05C1459.16 233.05 1466.63 225.617 1466.63 216.453C1466.63 207.289 1474.09 199.856 1483.29 199.856C1492.49 199.856 1499.96 192.423 1499.96 183.259C1499.96 174.095 1507.42 166.662 1516.62 166.662C1525.83 166.662 1533.29 174.09 1533.29 183.259C1533.29 192.427 1540.75 199.856 1549.96 199.856C1559.16 199.856 1566.62 207.284 1566.62 216.453C1566.62 225.621 1574.08 233.05 1583.29 233.05C1592.49 233.05 1599.96 225.617 1599.96 216.453C1599.96 207.289 1607.42 199.856 1616.62 199.856C1625.82 199.856 1633.29 192.423 1633.29 183.259C1633.29 174.095 1640.75 166.662 1649.95 166.662C1659.16 166.662 1666.62 159.229 1666.62 150.065C1666.62 140.901 1674.08 133.468 1683.29 133.468C1692.49 133.468 1699.95 140.896 1699.95 150.065C1699.95 159.234 1707.41 166.662 1716.62 166.662C1725.82 166.662 1733.29 159.229 1733.29 150.065C1733.29 140.901 1740.75 133.468 1749.95 133.468C1759.15 133.468 1766.62 126.035 1766.62 116.871C1766.62 107.707 1774.08 100.274 1783.28 100.274C1792.49 100.274 1799.95 107.703 1799.95 116.871C1799.95 126.04 1807.41 133.468 1816.62 133.468C1825.82 133.468 1833.28 126.035 1833.28 116.871C1833.28 107.707 1840.74 100.274 1849.95 100.274C1859.15 100.274 1866.62 92.8415 1866.62 83.6774C1866.62 74.5133 1874.08 67.0805 1883.28 67.0805C1892.48 67.0805 1899.95 74.5088 1899.95 83.6774C1899.95 92.8461 1907.41 100.274 1916.61 100.274C1925.82 100.274 1933.28 92.8415 1933.28 83.6774C1933.28 74.5133 1940.74 67.0805 1949.95 67.0805C1959.15 67.0805 1966.61 59.6477 1966.61 50.4836C1966.61 41.3195 1974.07 33.8867 1983.28 33.8867C1992.48 33.8867 1999.95 41.315 1999.95 50.4836Z" fill="#FEC89A"/>
<path d="M1999.95 83.1772C1999.95 92.3625 1992.49 99.8126 1983.28 99.8126C1974.07 99.8126 1966.61 107.258 1966.61 116.448C1966.61 125.638 1959.15 133.083 1949.95 133.083C1940.74 133.083 1933.28 140.529 1933.28 149.719C1933.28 158.909 1925.82 166.354 1916.61 166.354C1907.4 166.354 1899.95 158.904 1899.95 149.719C1899.95 140.533 1892.49 133.083 1883.28 133.083C1874.07 133.083 1866.62 140.529 1866.62 149.719C1866.62 158.909 1859.16 166.354 1849.95 166.354C1840.74 166.354 1833.28 173.8 1833.28 182.99C1833.28 192.179 1825.82 199.625 1816.62 199.625C1807.41 199.625 1799.95 192.175 1799.95 182.99C1799.95 173.804 1792.49 166.354 1783.28 166.354C1774.07 166.354 1766.62 173.8 1766.62 182.99C1766.62 192.179 1759.16 199.625 1749.95 199.625C1740.74 199.625 1733.29 207.071 1733.29 216.26C1733.29 225.45 1725.83 232.896 1716.62 232.896C1707.41 232.896 1699.95 225.446 1699.95 216.26C1699.95 207.075 1692.49 199.625 1683.29 199.625C1674.08 199.625 1666.62 207.071 1666.62 216.26C1666.62 225.45 1659.16 232.896 1649.95 232.896C1640.74 232.896 1633.29 240.341 1633.29 249.531C1633.29 258.721 1625.83 266.167 1616.62 266.167C1607.41 266.167 1599.96 273.612 1599.96 282.802C1599.96 291.992 1592.5 299.437 1583.29 299.437C1574.08 299.437 1566.62 291.987 1566.62 282.802C1566.62 273.617 1559.16 266.167 1549.96 266.167C1540.75 266.167 1533.29 258.717 1533.29 249.531C1533.29 240.346 1525.83 232.896 1516.62 232.896C1507.42 232.896 1499.96 240.341 1499.96 249.531C1499.96 258.721 1492.5 266.167 1483.29 266.167C1474.08 266.167 1466.63 273.612 1466.63 282.802C1466.63 291.992 1459.17 299.437 1449.96 299.437C1440.75 299.437 1433.29 306.883 1433.29 316.073C1433.29 325.263 1425.83 332.708 1416.63 332.708C1407.42 332.708 1399.96 325.258 1399.96 316.073C1399.96 306.888 1392.5 299.437 1383.29 299.437C1374.09 299.437 1366.63 291.987 1366.63 282.802C1366.63 273.617 1359.17 266.167 1349.96 266.167C1340.75 266.167 1333.3 273.612 1333.3 282.802C1333.3 291.992 1325.84 299.437 1316.63 299.437C1307.42 299.437 1299.96 291.987 1299.96 282.802C1299.96 273.617 1292.5 266.167 1283.3 266.167C1274.09 266.167 1266.63 273.612 1266.63 282.802C1266.63 291.992 1259.17 299.437 1249.96 299.437C1240.76 299.437 1233.3 306.883 1233.3 316.073C1233.3 325.263 1225.84 332.708 1216.63 332.708C1207.42 332.708 1199.97 325.258 1199.97 316.073C1199.97 306.888 1192.51 299.437 1183.3 299.437C1174.09 299.437 1166.64 306.883 1166.64 316.073C1166.64 325.263 1159.17 332.708 1149.97 332.708C1140.76 332.708 1133.3 325.258 1133.3 316.073C1133.3 306.888 1125.84 299.437 1116.63 299.437C1107.43 299.437 1099.97 291.987 1099.97 282.802C1099.97 273.617 1092.51 266.167 1083.3 266.167C1074.09 266.167 1066.64 273.612 1066.64 282.802C1066.64 291.992 1059.18 299.437 1049.97 299.437C1040.76 299.437 1033.31 291.987 1033.31 282.802C1033.31 273.617 1025.85 266.167 1016.64 266.167C1007.43 266.167 999.973 258.717 999.973 249.531C999.973 240.346 992.513 232.896 983.305 232.896C974.096 232.896 966.641 240.341 966.641 249.531C966.641 258.721 959.18 266.167 949.972 266.167C940.764 266.167 933.308 273.612 933.308 282.802C933.308 291.992 925.848 299.437 916.64 299.437C907.431 299.437 899.976 291.987 899.976 282.802C899.976 273.617 892.515 266.167 883.307 266.167C874.099 266.167 866.643 273.612 866.643 282.802C866.643 291.992 859.183 299.437 849.975 299.437C840.767 299.437 833.311 306.883 833.311 316.073C833.311 325.263 825.851 332.708 816.642 332.708C807.434 332.708 799.978 325.258 799.978 316.073C799.978 306.888 792.518 299.437 783.31 299.437C774.102 299.437 766.646 306.883 766.646 316.073C766.646 325.263 759.186 332.708 749.977 332.708C740.769 332.708 733.314 325.258 733.314 316.073C733.314 306.888 725.853 299.437 716.645 299.437C707.437 299.437 699.981 291.987 699.981 282.802C699.981 273.617 692.521 266.167 683.313 266.167C674.104 266.167 666.649 273.612 666.649 282.802C666.649 291.992 659.188 299.437 649.98 299.437C640.772 299.437 633.316 291.987 633.316 282.802C633.316 273.617 625.856 266.167 616.648 266.167C607.44 266.167 599.984 273.612 599.984 282.802C599.984 291.992 592.523 299.437 583.315 299.437C574.107 299.437 566.651 306.883 566.651 316.073C566.651 325.263 559.191 332.708 549.983 332.708C540.775 332.708 533.319 325.258 533.319 316.073C533.319 306.888 525.859 299.437 516.65 299.437C507.442 299.437 499.986 306.883 499.986 316.073C499.986 325.263 492.526 332.708 483.318 332.708C474.11 332.708 466.654 325.258 466.654 316.073C466.654 306.888 459.194 299.437 449.986 299.437C440.777 299.437 433.322 291.987 433.322 282.802C433.322 273.617 425.861 266.167 416.653 266.167C407.445 266.167 399.989 273.612 399.989 282.802C399.989 291.992 392.529 299.437 383.321 299.437C374.113 299.437 366.657 291.987 366.657 282.802C366.657 273.617 359.196 266.167 349.988 266.167C340.78 266.167 333.324 258.717 333.324 249.531C333.324 240.346 325.864 232.896 316.656 232.896C307.448 232.896 299.992 240.341 299.992 249.531C299.992 258.721 292.532 266.167 283.323 266.167C274.115 266.167 266.659 273.612 266.659 282.802C266.659 291.992 259.199 299.437 249.991 299.437C240.783 299.437 233.327 291.987 233.327 282.802C233.327 273.617 225.867 266.167 216.659 266.167C207.45 266.167 199.995 273.612 199.995 282.802C199.995 291.992 192.534 299.437 183.326 299.437C174.118 299.437 166.662 291.987 166.662 282.802C166.662 273.617 159.202 266.167 149.994 266.167C140.785 266.167 133.33 273.612 133.33 282.802C133.33 291.992 125.869 299.437 116.661 299.437C107.453 299.437 99.9973 306.883 99.9973 316.073C99.9973 325.263 92.537 332.708 83.3288 332.708C74.1206 332.708 66.6649 325.258 66.6649 316.073C66.6649 306.888 59.2046 299.437 49.9964 299.437C40.7882 299.437 33.3324 306.883 33.3324 316.073C33.3324 325.263 25.8721 332.708 16.6639 332.708C7.45576 332.708 0 325.258 0 316.073C0 306.888 7.46031 299.437 16.6639 299.437C25.8676 299.437 33.3324 291.987 33.3324 282.802C33.3324 273.617 40.7927 266.167 49.9964 266.167C59.2 266.167 66.6649 273.612 66.6649 282.802C66.6649 291.992 74.1252 299.437 83.3288 299.437C92.5324 299.437 99.9973 291.987 99.9973 282.802C99.9973 273.617 107.458 266.167 116.661 266.167C125.865 266.167 133.33 258.717 133.33 249.531C133.33 240.346 140.79 232.896 149.994 232.896C159.197 232.896 166.662 240.341 166.662 249.531C166.662 258.721 174.122 266.167 183.326 266.167C192.53 266.167 199.995 258.717 199.995 249.531C199.995 240.346 207.455 232.896 216.659 232.896C225.862 232.896 233.327 240.341 233.327 249.531C233.327 258.721 240.787 266.167 249.991 266.167C259.195 266.167 266.659 258.717 266.659 249.531C266.659 240.346 274.12 232.896 283.323 232.896C292.527 232.896 299.992 225.446 299.992 216.26C299.992 207.075 307.452 199.625 316.656 199.625C325.859 199.625 333.324 207.071 333.324 216.26C333.324 225.45 340.785 232.896 349.988 232.896C359.192 232.896 366.657 240.341 366.657 249.531C366.657 258.721 374.117 266.167 383.321 266.167C392.524 266.167 399.989 258.717 399.989 249.531C399.989 240.346 407.45 232.896 416.653 232.896C425.857 232.896 433.322 240.341 433.322 249.531C433.322 258.721 440.782 266.167 449.986 266.167C459.189 266.167 466.654 273.612 466.654 282.802C466.654 291.992 474.114 299.437 483.318 299.437C492.522 299.437 499.986 291.987 499.986 282.802C499.986 273.617 507.447 266.167 516.65 266.167C525.854 266.167 533.319 273.612 533.319 282.802C533.319 291.992 540.779 299.437 549.983 299.437C559.187 299.437 566.651 291.987 566.651 282.802C566.651 273.617 574.112 266.167 583.315 266.167C592.519 266.167 599.984 258.717 599.984 249.531C599.984 240.346 607.444 232.896 616.648 232.896C625.851 232.896 633.316 240.341 633.316 249.531C633.316 258.721 640.777 266.167 649.98 266.167C659.184 266.167 666.649 258.717 666.649 249.531C666.649 240.346 674.109 232.896 683.313 232.896C692.516 232.896 699.981 240.341 699.981 249.531C699.981 258.721 707.441 266.167 716.645 266.167C725.849 266.167 733.314 273.612 733.314 282.802C733.314 291.992 740.774 299.437 749.977 299.437C759.181 299.437 766.646 291.987 766.646 282.802C766.646 273.617 774.106 266.167 783.31 266.167C792.514 266.167 799.978 273.612 799.978 282.802C799.978 291.992 807.439 299.437 816.642 299.437C825.846 299.437 833.311 291.987 833.311 282.802C833.311 273.617 840.771 266.167 849.975 266.167C859.178 266.167 866.643 258.717 866.643 249.531C866.643 240.346 874.104 232.896 883.307 232.896C892.511 232.896 899.976 240.341 899.976 249.531C899.976 258.721 907.436 266.167 916.64 266.167C925.843 266.167 933.308 258.717 933.308 249.531C933.308 240.346 940.768 232.896 949.972 232.896C959.176 232.896 966.641 225.446 966.641 216.26C966.641 207.075 974.101 199.625 983.305 199.625C992.508 199.625 999.973 207.071 999.973 216.26C999.973 225.45 1007.43 232.896 1016.64 232.896C1025.84 232.896 1033.31 240.341 1033.31 249.531C1033.31 258.721 1040.77 266.167 1049.97 266.167C1059.17 266.167 1066.64 258.717 1066.64 249.531C1066.64 240.346 1074.1 232.896 1083.3 232.896C1092.51 232.896 1099.97 240.341 1099.97 249.531C1099.97 258.721 1107.43 266.167 1116.63 266.167C1125.84 266.167 1133.3 273.612 1133.3 282.802C1133.3 291.992 1140.76 299.437 1149.97 299.437C1159.17 299.437 1166.64 291.987 1166.64 282.802C1166.64 273.617 1174.1 266.167 1183.3 266.167C1192.5 266.167 1199.97 273.612 1199.97 282.802C1199.97 291.992 1207.43 299.437 1216.63 299.437C1225.84 299.437 1233.3 291.987 1233.3 282.802C1233.3 273.617 1240.76 266.167 1249.96 266.167C1259.17 266.167 1266.63 258.717 1266.63 249.531C1266.63 240.346 1274.09 232.896 1283.3 232.896C1292.5 232.896 1299.96 240.341 1299.96 249.531C1299.96 258.721 1307.43 266.167 1316.63 266.167C1325.83 266.167 1333.3 258.717 1333.3 249.531C1333.3 240.346 1340.76 232.896 1349.96 232.896C1359.16 232.896 1366.63 240.341 1366.63 249.531C1366.63 258.721 1374.09 266.167 1383.29 266.167C1392.5 266.167 1399.96 273.612 1399.96 282.802C1399.96 291.992 1407.42 299.437 1416.63 299.437C1425.83 299.437 1433.29 291.987 1433.29 282.802C1433.29 273.617 1440.75 266.167 1449.96 266.167C1459.16 266.167 1466.63 258.717 1466.63 249.531C1466.63 240.346 1474.09 232.896 1483.29 232.896C1492.49 232.896 1499.96 225.446 1499.96 216.26C1499.96 207.075 1507.42 199.625 1516.62 199.625C1525.83 199.625 1533.29 207.071 1533.29 216.26C1533.29 225.45 1540.75 232.896 1549.96 232.896C1559.16 232.896 1566.62 240.341 1566.62 249.531C1566.62 258.721 1574.08 266.167 1583.29 266.167C1592.49 266.167 1599.96 258.717 1599.96 249.531C1599.96 240.346 1607.42 232.896 1616.62 232.896C1625.82 232.896 1633.29 225.446 1633.29 216.26C1633.29 207.075 1640.75 199.625 1649.95 199.625C1659.16 199.625 1666.62 192.175 1666.62 182.99C1666.62 173.804 1674.08 166.354 1683.29 166.354C1692.49 166.354 1699.95 173.8 1699.95 182.99C1699.95 192.179 1707.41 199.625 1716.62 199.625C1725.82 199.625 1733.29 192.175 1733.29 182.99C1733.29 173.804 1740.75 166.354 1749.95 166.354C1759.15 166.354 1766.62 158.904 1766.62 149.719C1766.62 140.533 1774.08 133.083 1783.28 133.083C1792.49 133.083 1799.95 140.529 1799.95 149.719C1799.95 158.909 1807.41 166.354 1816.62 166.354C1825.82 166.354 1833.28 158.904 1833.28 149.719C1833.28 140.533 1840.74 133.083 1849.95 133.083C1859.15 133.083 1866.62 125.633 1866.62 116.448C1866.62 107.263 1874.08 99.8126 1883.28 99.8126C1892.48 99.8126 1899.95 107.258 1899.95 116.448C1899.95 125.638 1907.41 133.083 1916.61 133.083C1925.82 133.083 1933.28 125.633 1933.28 116.448C1933.28 107.263 1940.74 99.8126 1949.95 99.8126C1959.15 99.8126 1966.61 92.3625 1966.61 83.1772C1966.61 73.9918 1974.07 66.5417 1983.28 66.5417C1992.48 66.5417 1999.95 73.9872 1999.95 83.1772Z" fill="white"/>
<path d="M1999.95 116.987C1999.95 126.13 1992.49 133.545 1983.28 133.545C1974.07 133.545 1966.61 140.956 1966.61 150.104C1966.61 159.251 1959.15 166.662 1949.95 166.662C1940.74 166.662 1933.28 174.073 1933.28 183.22C1933.28 192.368 1925.82 199.779 1916.61 199.779C1907.4 199.779 1899.95 192.363 1899.95 183.22C1899.95 174.078 1892.49 166.662 1883.28 166.662C1874.07 166.662 1866.62 174.073 1866.62 183.22C1866.62 192.368 1859.16 199.779 1849.95 199.779C1840.74 199.779 1833.28 207.19 1833.28 216.337C1833.28 225.485 1825.82 232.896 1816.62 232.896C1807.41 232.896 1799.95 225.48 1799.95 216.337C1799.95 207.194 1792.49 199.779 1783.28 199.779C1774.07 199.779 1766.62 207.19 1766.62 216.337C1766.62 225.485 1759.16 232.896 1749.95 232.896C1740.74 232.896 1733.29 240.307 1733.29 249.454C1733.29 258.601 1725.83 266.012 1716.62 266.012C1707.41 266.012 1699.95 258.597 1699.95 249.454C1699.95 240.311 1692.49 232.896 1683.29 232.896C1674.08 232.896 1666.62 240.307 1666.62 249.454C1666.62 258.601 1659.16 266.012 1649.95 266.012C1640.74 266.012 1633.29 273.423 1633.29 282.571C1633.29 291.718 1625.83 299.129 1616.62 299.129C1607.41 299.129 1599.96 306.54 1599.96 315.688C1599.96 324.835 1592.5 332.246 1583.29 332.246C1574.08 332.246 1566.62 324.83 1566.62 315.688C1566.62 306.545 1559.16 299.129 1549.96 299.129C1540.75 299.129 1533.29 291.714 1533.29 282.571C1533.29 273.428 1525.83 266.012 1516.62 266.012C1507.42 266.012 1499.96 273.423 1499.96 282.571C1499.96 291.718 1492.5 299.129 1483.29 299.129C1474.08 299.129 1466.63 306.54 1466.63 315.688C1466.63 324.835 1459.17 332.246 1449.96 332.246C1440.75 332.246 1433.29 339.657 1433.29 348.804C1433.29 357.952 1425.83 365.363 1416.63 365.363C1407.42 365.363 1399.96 357.947 1399.96 348.804C1399.96 339.662 1392.5 332.246 1383.29 332.246C1374.09 332.246 1366.63 324.83 1366.63 315.688C1366.63 306.545 1359.17 299.129 1349.96 299.129C1340.75 299.129 1333.3 306.54 1333.3 315.688C1333.3 324.835 1325.84 332.246 1316.63 332.246C1307.42 332.246 1299.96 324.83 1299.96 315.688C1299.96 306.545 1292.5 299.129 1283.3 299.129C1274.09 299.129 1266.63 306.54 1266.63 315.688C1266.63 324.835 1259.17 332.246 1249.96 332.246C1240.76 332.246 1233.3 339.657 1233.3 348.804C1233.3 357.952 1225.84 365.363 1216.63 365.363C1207.42 365.363 1199.97 357.947 1199.97 348.804C1199.97 339.662 1192.51 332.246 1183.3 332.246C1174.09 332.246 1166.64 339.657 1166.64 348.804C1166.64 357.952 1159.17 365.363 1149.97 365.363C1140.76 365.363 1133.3 357.947 1133.3 348.804C1133.3 339.662 1125.84 332.246 1116.63 332.246C1107.43 332.246 1099.97 324.83 1099.97 315.688C1099.97 306.545 1092.51 299.129 1083.3 299.129C1074.09 299.129 1066.64 306.54 1066.64 315.688C1066.64 324.835 1059.18 332.246 1049.97 332.246C1040.76 332.246 1033.31 324.83 1033.31 315.688C1033.31 306.545 1025.85 299.129 1016.64 299.129C1007.43 299.129 999.973 291.714 999.973 282.571C999.973 273.428 992.513 266.012 983.305 266.012C974.096 266.012 966.641 273.423 966.641 282.571C966.641 291.718 959.18 299.129 949.972 299.129C940.764 299.129 933.308 306.54 933.308 315.688C933.308 324.835 925.848 332.246 916.64 332.246C907.431 332.246 899.976 324.83 899.976 315.688C899.976 306.545 892.515 299.129 883.307 299.129C874.099 299.129 866.643 306.54 866.643 315.688C866.643 324.835 859.183 332.246 849.975 332.246C840.767 332.246 833.311 339.657 833.311 348.804C833.311 357.952 825.851 365.363 816.642 365.363C807.434 365.363 799.978 357.947 799.978 348.804C799.978 339.662 792.518 332.246 783.31 332.246C774.102 332.246 766.646 339.657 766.646 348.804C766.646 357.952 759.186 365.363 749.977 365.363C740.769 365.363 733.314 357.947 733.314 348.804C733.314 339.662 725.853 332.246 716.645 332.246C707.437 332.246 699.981 324.83 699.981 315.688C699.981 306.545 692.521 299.129 683.313 299.129C674.104 299.129 666.649 306.54 666.649 315.688C666.649 324.835 659.188 332.246 649.98 332.246C640.772 332.246 633.316 324.83 633.316 315.688C633.316 306.545 625.856 299.129 616.648 299.129C607.44 299.129 599.984 306.54 599.984 315.688C599.984 324.835 592.523 332.246 583.315 332.246C574.107 332.246 566.651 339.657 566.651 348.804C566.651 357.952 559.191 365.363 549.983 365.363C540.775 365.363 533.319 357.947 533.319 348.804C533.319 339.662 525.859 332.246 516.65 332.246C507.442 332.246 499.986 339.657 499.986 348.804C499.986 357.952 492.526 365.363 483.318 365.363C474.11 365.363 466.654 357.947 466.654 348.804C466.654 339.662 459.194 332.246 449.986 332.246C440.777 332.246 433.322 324.83 433.322 315.688C433.322 306.545 425.861 299.129 416.653 299.129C407.445 299.129 399.989 306.54 399.989 315.688C399.989 324.835 392.529 332.246 383.321 332.246C374.113 332.246 366.657 324.83 366.657 315.688C366.657 306.545 359.196 299.129 349.988 299.129C340.78 299.129 333.324 291.714 333.324 282.571C333.324 273.428 325.864 266.012 316.656 266.012C307.448 266.012 299.992 273.423 299.992 282.571C299.992 291.718 292.532 299.129 283.323 299.129C274.115 299.129 266.659 306.54 266.659 315.688C266.659 324.835 259.199 332.246 249.991 332.246C240.783 332.246 233.327 324.83 233.327 315.688C233.327 306.545 225.867 299.129 216.659 299.129C207.45 299.129 199.995 306.54 199.995 315.688C199.995 324.835 192.534 332.246 183.326 332.246C174.118 332.246 166.662 324.83 166.662 315.688C166.662 306.545 159.202 299.129 149.994 299.129C140.785 299.129 133.33 306.54 133.33 315.688C133.33 324.835 125.869 332.246 116.661 332.246C107.453 332.246 99.9973 339.657 99.9973 348.804C99.9973 357.952 92.537 365.363 83.3288 365.363C74.1206 365.363 66.6649 357.947 66.6649 348.804C66.6649 339.662 59.2046 332.246 49.9964 332.246C40.7882 332.246 33.3324 339.657 33.3324 348.804C33.3324 357.952 25.8721 365.363 16.6639 365.363C7.45576 365.363 0 357.947 0 348.804C0 339.662 7.46031 332.246 16.6639 332.246C25.8676 332.246 33.3324 324.83 33.3324 315.688C33.3324 306.545 40.7927 299.129 49.9964 299.129C59.2 299.129 66.6649 306.54 66.6649 315.688C66.6649 324.835 74.1252 332.246 83.3288 332.246C92.5324 332.246 99.9973 324.83 99.9973 315.688C99.9973 306.545 107.458 299.129 116.661 299.129C125.865 299.129 133.33 291.714 133.33 282.571C133.33 273.428 140.79 266.012 149.994 266.012C159.197 266.012 166.662 273.423 166.662 282.571C166.662 291.718 174.122 299.129 183.326 299.129C192.53 299.129 199.995 291.714 199.995 282.571C199.995 273.428 207.455 266.012 216.659 266.012C225.862 266.012 233.327 273.423 233.327 282.571C233.327 291.718 240.787 299.129 249.991 299.129C259.195 299.129 266.659 291.714 266.659 282.571C266.659 273.428 274.12 266.012 283.323 266.012C292.527 266.012 299.992 258.597 299.992 249.454C299.992 240.311 307.452 232.896 316.656 232.896C325.859 232.896 333.324 240.307 333.324 249.454C333.324 258.601 340.785 266.012 349.988 266.012C359.192 266.012 366.657 273.423 366.657 282.571C366.657 291.718 374.117 299.129 383.321 299.129C392.524 299.129 399.989 291.714 399.989 282.571C399.989 273.428 407.45 266.012 416.653 266.012C425.857 266.012 433.322 273.423 433.322 282.571C433.322 291.718 440.782 299.129 449.986 299.129C459.189 299.129 466.654 306.54 466.654 315.688C466.654 324.835 474.114 332.246 483.318 332.246C492.522 332.246 499.986 324.83 499.986 315.688C499.986 306.545 507.447 299.129 516.65 299.129C525.854 299.129 533.319 306.54 533.319 315.688C533.319 324.835 540.779 332.246 549.983 332.246C559.187 332.246 566.651 324.83 566.651 315.688C566.651 306.545 574.112 299.129 583.315 299.129C592.519 299.129 599.984 291.714 599.984 282.571C599.984 273.428 607.444 266.012 616.648 266.012C625.851 266.012 633.316 273.423 633.316 282.571C633.316 291.718 640.777 299.129 649.98 299.129C659.184 299.129 666.649 291.714 666.649 282.571C666.649 273.428 674.109 266.012 683.313 266.012C692.516 266.012 699.981 273.423 699.981 282.571C699.981 291.718 707.441 299.129 716.645 299.129C725.849 299.129 733.314 306.54 733.314 315.688C733.314 324.835 740.774 332.246 749.977 332.246C759.181 332.246 766.646 324.83 766.646 315.688C766.646 306.545 774.106 299.129 783.31 299.129C792.514 299.129 799.978 306.54 799.978 315.688C799.978 324.835 807.439 332.246 816.642 332.246C825.846 332.246 833.311 324.83 833.311 315.688C833.311 306.545 840.771 299.129 849.975 299.129C859.178 299.129 866.643 291.714 866.643 282.571C866.643 273.428 874.104 266.012 883.307 266.012C892.511 266.012 899.976 273.423 899.976 282.571C899.976 291.718 907.436 299.129 916.64 299.129C925.843 299.129 933.308 291.714 933.308 282.571C933.308 273.428 940.768 266.012 949.972 266.012C959.176 266.012 966.641 258.597 966.641 249.454C966.641 240.311 974.101 232.896 983.305 232.896C992.508 232.896 999.973 240.307 999.973 249.454C999.973 258.601 1007.43 266.012 1016.64 266.012C1025.84 266.012 1033.31 273.423 1033.31 282.571C1033.31 291.718 1040.77 299.129 1049.97 299.129C1059.17 299.129 1066.64 291.714 1066.64 282.571C1066.64 273.428 1074.1 266.012 1083.3 266.012C1092.51 266.012 1099.97 273.423 1099.97 282.571C1099.97 291.718 1107.43 299.129 1116.63 299.129C1125.84 299.129 1133.3 306.54 1133.3 315.688C1133.3 324.835 1140.76 332.246 1149.97 332.246C1159.17 332.246 1166.64 324.83 1166.64 315.688C1166.64 306.545 1174.1 299.129 1183.3 299.129C1192.5 299.129 1199.97 306.54 1199.97 315.688C1199.97 324.835 1207.43 332.246 1216.63 332.246C1225.84 332.246 1233.3 324.83 1233.3 315.688C1233.3 306.545 1240.76 299.129 1249.96 299.129C1259.17 299.129 1266.63 291.714 1266.63 282.571C1266.63 273.428 1274.09 266.012 1283.3 266.012C1292.5 266.012 1299.96 273.423 1299.96 282.571C1299.96 291.718 1307.43 299.129 1316.63 299.129C1325.83 299.129 1333.3 291.714 1333.3 282.571C1333.3 273.428 1340.76 266.012 1349.96 266.012C1359.16 266.012 1366.63 273.423 1366.63 282.571C1366.63 291.718 1374.09 299.129 1383.29 299.129C1392.5 299.129 1399.96 306.54 1399.96 315.688C1399.96 324.835 1407.42 332.246 1416.63 332.246C1425.83 332.246 1433.29 324.83 1433.29 315.688C1433.29 306.545 1440.75 299.129 1449.96 299.129C1459.16 299.129 1466.63 291.714 1466.63 282.571C1466.63 273.428 1474.09 266.012 1483.29 266.012C1492.49 266.012 1499.96 258.597 1499.96 249.454C1499.96 240.311 1507.42 232.896 1516.62 232.896C1525.83 232.896 1533.29 240.307 1533.29 249.454C1533.29 258.601 1540.75 266.012 1549.96 266.012C1559.16 266.012 1566.62 273.423 1566.62 282.571C1566.62 291.718 1574.08 299.129 1583.29 299.129C1592.49 299.129 1599.96 291.714 1599.96 282.571C1599.96 273.428 1607.42 266.012 1616.62 266.012C1625.82 266.012 1633.29 258.597 1633.29 249.454C1633.29 240.311 1640.75 232.896 1649.95 232.896C1659.16 232.896 1666.62 225.48 1666.62 216.337C1666.62 207.194 1674.08 199.779 1683.29 199.779C1692.49 199.779 1699.95 207.19 1699.95 216.337C1699.95 225.485 1707.41 232.896 1716.62 232.896C1725.82 232.896 1733.29 225.48 1733.29 216.337C1733.29 207.194 1740.75 199.779 1749.95 199.779C1759.15 199.779 1766.62 192.363 1766.62 183.22C1766.62 174.078 1774.08 166.662 1783.28 166.662C1792.49 166.662 1799.95 174.073 1799.95 183.22C1799.95 192.368 1807.41 199.779 1816.62 199.779C1825.82 199.779 1833.28 192.363 1833.28 183.22C1833.28 174.078 1840.74 166.662 1849.95 166.662C1859.15 166.662 1866.62 159.246 1866.62 150.104C1866.62 140.961 1874.08 133.545 1883.28 133.545C1892.48 133.545 1899.95 140.956 1899.95 150.104C1899.95 159.251 1907.41 166.662 1916.61 166.662C1925.82 166.662 1933.28 159.246 1933.28 150.104C1933.28 140.961 1940.74 133.545 1949.95 133.545C1959.15 133.545 1966.61 126.13 1966.61 116.987C1966.61 107.844 1974.07 100.428 1983.28 100.428C1992.48 100.428 1999.95 107.839 1999.95 116.987Z" fill="#FEC5BB"/>
<path d="M1999.95 150.296C1999.95 159.46 1992.49 166.893 1983.28 166.893C1974.07 166.893 1966.61 174.321 1966.61 183.49C1966.61 192.659 1959.15 200.087 1949.95 200.087C1940.74 200.087 1933.28 207.515 1933.28 216.684C1933.28 225.852 1925.82 233.281 1916.61 233.281C1907.4 233.281 1899.95 225.848 1899.95 216.684C1899.95 207.52 1892.49 200.087 1883.28 200.087C1874.07 200.087 1866.62 207.515 1866.62 216.684C1866.62 225.852 1859.16 233.281 1849.95 233.281C1840.74 233.281 1833.28 240.709 1833.28 249.878C1833.28 259.046 1825.82 266.474 1816.62 266.474C1807.41 266.474 1799.95 259.042 1799.95 249.878C1799.95 240.713 1792.49 233.281 1783.28 233.281C1774.07 233.281 1766.62 240.709 1766.62 249.878C1766.62 259.046 1759.16 266.474 1749.95 266.474C1740.74 266.474 1733.29 273.903 1733.29 283.071C1733.29 292.24 1725.83 299.668 1716.62 299.668C1707.41 299.668 1699.95 292.235 1699.95 283.071C1699.95 273.907 1692.49 266.474 1683.29 266.474C1674.08 266.474 1666.62 273.903 1666.62 283.071C1666.62 292.24 1659.16 299.668 1649.95 299.668C1640.74 299.668 1633.29 307.097 1633.29 316.265C1633.29 325.434 1625.83 332.862 1616.62 332.862C1607.41 332.862 1599.96 340.29 1599.96 349.459C1599.96 358.628 1592.5 366.056 1583.29 366.056C1574.08 366.056 1566.62 358.623 1566.62 349.459C1566.62 340.295 1559.16 332.862 1549.96 332.862C1540.75 332.862 1533.29 325.429 1533.29 316.265C1533.29 307.101 1525.83 299.668 1516.62 299.668C1507.42 299.668 1499.96 307.097 1499.96 316.265C1499.96 325.434 1492.5 332.862 1483.29 332.862C1474.08 332.862 1466.63 340.29 1466.63 349.459C1466.63 358.628 1459.17 366.056 1449.96 366.056C1440.75 366.056 1433.29 373.484 1433.29 382.653C1433.29 391.821 1425.83 399.25 1416.63 399.25C1407.42 399.25 1399.96 391.817 1399.96 382.653C1399.96 373.489 1392.5 366.056 1383.29 366.056C1374.09 366.056 1366.63 358.623 1366.63 349.459C1366.63 340.295 1359.17 332.862 1349.96 332.862C1340.75 332.862 1333.3 340.29 1333.3 349.459C1333.3 358.628 1325.84 366.056 1316.63 366.056C1307.42 366.056 1299.96 358.623 1299.96 349.459C1299.96 340.295 1292.5 332.862 1283.3 332.862C1274.09 332.862 1266.63 340.29 1266.63 349.459C1266.63 358.628 1259.17 366.056 1249.96 366.056C1240.76 366.056 1233.3 373.484 1233.3 382.653C1233.3 391.821 1225.84 399.25 1216.63 399.25C1207.42 399.25 1199.97 391.817 1199.97 382.653C1199.97 373.489 1192.51 366.056 1183.3 366.056C1174.09 366.056 1166.64 373.484 1166.64 382.653C1166.64 391.821 1159.17 399.25 1149.97 399.25C1140.76 399.25 1133.3 391.817 1133.3 382.653C1133.3 373.489 1125.84 366.056 1116.63 366.056C1107.43 366.056 1099.97 358.623 1099.97 349.459C1099.97 340.295 1092.51 332.862 1083.3 332.862C1074.09 332.862 1066.64 340.29 1066.64 349.459C1066.64 358.628 1059.18 366.056 1049.97 366.056C1040.76 366.056 1033.31 358.623 1033.31 349.459C1033.31 340.295 1025.85 332.862 1016.64 332.862C1007.43 332.862 999.973 325.429 999.973 316.265C999.973 307.101 992.513 299.668 983.305 299.668C974.096 299.668 966.641 307.097 966.641 316.265C966.641 325.434 959.18 332.862 949.972 332.862C940.764 332.862 933.308 340.29 933.308 349.459C933.308 358.628 925.848 366.056 916.64 366.056C907.431 366.056 899.976 358.623 899.976 349.459C899.976 340.295 892.515 332.862 883.307 332.862C874.099 332.862 866.643 340.29 866.643 349.459C866.643 358.628 859.183 366.056 849.975 366.056C840.767 366.056 833.311 373.484 833.311 382.653C833.311 391.821 825.851 399.25 816.642 399.25C807.434 399.25 799.978 391.817 799.978 382.653C799.978 373.489 792.518 366.056 783.31 366.056C774.102 366.056 766.646 373.484 766.646 382.653C766.646 391.821 759.186 399.25 749.977 399.25C740.769 399.25 733.314 391.817 733.314 382.653C733.314 373.489 725.853 366.056 716.645 366.056C707.437 366.056 699.981 358.623 699.981 349.459C699.981 340.295 692.521 332.862 683.313 332.862C674.104 332.862 666.649 340.29 666.649 349.459C666.649 358.628 659.188 366.056 649.98 366.056C640.772 366.056 633.316 358.623 633.316 349.459C633.316 340.295 625.856 332.862 616.648 332.862C607.44 332.862 599.984 340.29 599.984 349.459C599.984 358.628 592.523 366.056 583.315 366.056C574.107 366.056 566.651 373.484 566.651 382.653C566.651 391.821 559.191 399.25 549.983 399.25C540.775 399.25 533.319 391.817 533.319 382.653C533.319 373.489 525.859 366.056 516.65 366.056C507.442 366.056 499.986 373.484 499.986 382.653C499.986 391.821 492.526 399.25 483.318 399.25C474.11 399.25 466.654 391.817 466.654 382.653C466.654 373.489 459.194 366.056 449.986 366.056C440.777 366.056 433.322 358.623 433.322 349.459C433.322 340.295 425.861 332.862 416.653 332.862C407.445 332.862 399.989 340.29 399.989 349.459C399.989 358.628 392.529 366.056 383.321 366.056C374.113 366.056 366.657 358.623 366.657 349.459C366.657 340.295 359.196 332.862 349.988 332.862C340.78 332.862 333.324 325.429 333.324 316.265C333.324 307.101 325.864 299.668 316.656 299.668C307.448 299.668 299.992 307.097 299.992 316.265C299.992 325.434 292.532 332.862 283.323 332.862C274.115 332.862 266.659 340.29 266.659 349.459C266.659 358.628 259.199 366.056 249.991 366.056C240.783 366.056 233.327 358.623 233.327 349.459C233.327 340.295 225.867 332.862 216.659 332.862C207.45 332.862 199.995 340.29 199.995 349.459C199.995 358.628 192.534 366.056 183.326 366.056C174.118 366.056 166.662 358.623 166.662 349.459C166.662 340.295 159.202 332.862 149.994 332.862C140.785 332.862 133.33 340.29 133.33 349.459C133.33 358.628 125.869 366.056 116.661 366.056C107.453 366.056 99.9973 373.484 99.9973 382.653C99.9973 391.821 92.537 399.25 83.3288 399.25C74.1206 399.25 66.6649 391.817 66.6649 382.653C66.6649 373.489 59.2046 366.056 49.9964 366.056C40.7882 366.056 33.3324 373.484 33.3324 382.653C33.3324 391.821 25.8721 399.25 16.6639 399.25C7.45576 399.25 0 391.817 0 382.653C0 373.489 7.46031 366.056 16.6639 366.056C25.8676 366.056 33.3324 358.623 33.3324 349.459C33.3324 340.295 40.7927 332.862 49.9964 332.862C59.2 332.862 66.6649 340.29 66.6649 349.459C66.6649 358.628 74.1252 366.056 83.3288 366.056C92.5324 366.056 99.9973 358.623 99.9973 349.459C99.9973 340.295 107.458 332.862 116.661 332.862C125.865 332.862 133.33 325.429 133.33 316.265C133.33 307.101 140.79 299.668 149.994 299.668C159.197 299.668 166.662 307.097 166.662 316.265C166.662 325.434 174.122 332.862 183.326 332.862C192.53 332.862 199.995 325.429 199.995 316.265C199.995 307.101 207.455 299.668 216.659 299.668C225.862 299.668 233.327 307.097 233.327 316.265C233.327 325.434 240.787 332.862 249.991 332.862C259.195 332.862 266.659 325.429 266.659 316.265C266.659 307.101 274.12 299.668 283.323 299.668C292.527 299.668 299.992 292.235 299.992 283.071C299.992 273.907 307.452 266.474 316.656 266.474C325.859 266.474 333.324 273.903 333.324 283.071C333.324 292.24 340.785 299.668 349.988 299.668C359.192 299.668 366.657 307.097 366.657 316.265C366.657 325.434 374.117 332.862 383.321 332.862C392.524 332.862 399.989 325.429 399.989 316.265C399.989 307.101 407.45 299.668 416.653 299.668C425.857 299.668 433.322 307.097 433.322 316.265C433.322 325.434 440.782 332.862 449.986 332.862C459.189 332.862 466.654 340.29 466.654 349.459C466.654 358.628 474.114 366.056 483.318 366.056C492.522 366.056 499.986 358.623 499.986 349.459C499.986 340.295 507.447 332.862 516.65 332.862C525.854 332.862 533.319 340.29 533.319 349.459C533.319 358.628 540.779 366.056 549.983 366.056C559.187 366.056 566.651 358.623 566.651 349.459C566.651 340.295 574.112 332.862 583.315 332.862C592.519 332.862 599.984 325.429 599.984 316.265C599.984 307.101 607.444 299.668 616.648 299.668C625.851 299.668 633.316 307.097 633.316 316.265C633.316 325.434 640.777 332.862 649.98 332.862C659.184 332.862 666.649 325.429 666.649 316.265C666.649 307.101 674.109 299.668 683.313 299.668C692.516 299.668 699.981 307.097 699.981 316.265C699.981 325.434 707.441 332.862 716.645 332.862C725.849 332.862 733.314 340.29 733.314 349.459C733.314 358.628 740.774 366.056 749.977 366.056C759.181 366.056 766.646 358.623 766.646 349.459C766.646 340.295 774.106 332.862 783.31 332.862C792.514 332.862 799.978 340.29 799.978 349.459C799.978 358.628 807.439 366.056 816.642 366.056C825.846 366.056 833.311 358.623 833.311 349.459C833.311 340.295 840.771 332.862 849.975 332.862C859.178 332.862 866.643 325.429 866.643 316.265C866.643 307.101 874.104 299.668 883.307 299.668C892.511 299.668 899.976 307.097 899.976 316.265C899.976 325.434 907.436 332.862 916.64 332.862C925.843 332.862 933.308 325.429 933.308 316.265C933.308 307.101 940.768 299.668 949.972 299.668C959.176 299.668 966.641 292.235 966.641 283.071C966.641 273.907 974.101 266.474 983.305 266.474C992.508 266.474 999.973 273.903 999.973 283.071C999.973 292.24 1007.43 299.668 1016.64 299.668C1025.84 299.668 1033.31 307.097 1033.31 316.265C1033.31 325.434 1040.77 332.862 1049.97 332.862C1059.17 332.862 1066.64 325.429 1066.64 316.265C1066.64 307.101 1074.1 299.668 1083.3 299.668C1092.51 299.668 1099.97 307.097 1099.97 316.265C1099.97 325.434 1107.43 332.862 1116.63 332.862C1125.84 332.862 1133.3 340.29 1133.3 349.459C1133.3 358.628 1140.76 366.056 1149.97 366.056C1159.17 366.056 1166.64 358.623 1166.64 349.459C1166.64 340.295 1174.1 332.862 1183.3 332.862C1192.5 332.862 1199.97 340.29 1199.97 349.459C1199.97 358.628 1207.43 366.056 1216.63 366.056C1225.84 366.056 1233.3 358.623 1233.3 349.459C1233.3 340.295 1240.76 332.862 1249.96 332.862C1259.17 332.862 1266.63 325.429 1266.63 316.265C1266.63 307.101 1274.09 299.668 1283.3 299.668C1292.5 299.668 1299.96 307.097 1299.96 316.265C1299.96 325.434 1307.43 332.862 1316.63 332.862C1325.83 332.862 1333.3 325.429 1333.3 316.265C1333.3 307.101 1340.76 299.668 1349.96 299.668C1359.16 299.668 1366.63 307.097 1366.63 316.265C1366.63 325.434 1374.09 332.862 1383.29 332.862C1392.5 332.862 1399.96 340.29 1399.96 349.459C1399.96 358.628 1407.42 366.056 1416.63 366.056C1425.83 366.056 1433.29 358.623 1433.29 349.459C1433.29 340.295 1440.75 332.862 1449.96 332.862C1459.16 332.862 1466.63 325.429 1466.63 316.265C1466.63 307.101 1474.09 299.668 1483.29 299.668C1492.49 299.668 1499.96 292.235 1499.96 283.071C1499.96 273.907 1507.42 266.474 1516.62 266.474C1525.83 266.474 1533.29 273.903 1533.29 283.071C1533.29 292.24 1540.75 299.668 1549.96 299.668C1559.16 299.668 1566.62 307.097 1566.62 316.265C1566.62 325.434 1574.08 332.862 1583.29 332.862C1592.49 332.862 1599.96 325.429 1599.96 316.265C1599.96 307.101 1607.42 299.668 1616.62 299.668C1625.82 299.668 1633.29 292.235 1633.29 283.071C1633.29 273.907 1640.75 266.474 1649.95 266.474C1659.16 266.474 1666.62 259.042 1666.62 249.878C1666.62 240.713 1674.08 233.281 1683.29 233.281C1692.49 233.281 1699.95 240.709 1699.95 249.878C1699.95 259.046 1707.41 266.474 1716.62 266.474C1725.82 266.474 1733.29 259.042 1733.29 249.878C1733.29 240.713 1740.75 233.281 1749.95 233.281C1759.15 233.281 1766.62 225.848 1766.62 216.684C1766.62 207.52 1774.08 200.087 1783.28 200.087C1792.49 200.087 1799.95 207.515 1799.95 216.684C1799.95 225.852 1807.41 233.281 1816.62 233.281C1825.82 233.281 1833.28 225.848 1833.28 216.684C1833.28 207.52 1840.74 200.087 1849.95 200.087C1859.15 200.087 1866.62 192.654 1866.62 183.49C1866.62 174.326 1874.08 166.893 1883.28 166.893C1892.48 166.893 1899.95 174.321 1899.95 183.49C1899.95 192.659 1907.41 200.087 1916.61 200.087C1925.82 200.087 1933.28 192.654 1933.28 183.49C1933.28 174.326 1940.74 166.893 1949.95 166.893C1959.15 166.893 1966.61 159.46 1966.61 150.296C1966.61 141.132 1974.07 133.699 1983.28 133.699C1992.48 133.699 1999.95 141.127 1999.95 150.296Z" fill="white"/>
<path d="M1999.95 183.028C1999.95 192.235 1992.49 199.702 1983.28 199.702C1974.07 199.702 1966.61 207.165 1966.61 216.376C1966.61 225.587 1959.15 233.05 1949.95 233.05C1940.74 233.05 1933.28 240.513 1933.28 249.724C1933.28 258.935 1925.82 266.398 1916.61 266.398C1907.4 266.398 1899.95 258.93 1899.95 249.724C1899.95 240.517 1892.49 233.05 1883.28 233.05C1874.07 233.05 1866.62 240.513 1866.62 249.724C1866.62 258.935 1859.16 266.398 1849.95 266.398C1840.74 266.398 1833.28 273.861 1833.28 283.072C1833.28 292.283 1825.82 299.746 1816.62 299.746C1807.41 299.746 1799.95 292.278 1799.95 283.072C1799.95 273.865 1792.49 266.398 1783.28 266.398C1774.07 266.398 1766.62 273.861 1766.62 283.072C1766.62 292.283 1759.16 299.746 1749.95 299.746C1740.74 299.746 1733.29 307.208 1733.29 316.42C1733.29 325.631 1725.83 333.093 1716.62 333.093C1707.41 333.093 1699.95 325.626 1699.95 316.42C1699.95 307.213 1692.49 299.746 1683.29 299.746C1674.08 299.746 1666.62 307.208 1666.62 316.42C1666.62 325.631 1659.16 333.093 1649.95 333.093C1640.74 333.093 1633.29 340.556 1633.29 349.767C1633.29 358.979 1625.83 366.441 1616.62 366.441C1607.41 366.441 1599.96 373.904 1599.96 383.115C1599.96 392.326 1592.5 399.789 1583.29 399.789C1574.08 399.789 1566.62 392.322 1566.62 383.115C1566.62 373.909 1559.16 366.441 1549.96 366.441C1540.75 366.441 1533.29 358.974 1533.29 349.767C1533.29 340.561 1525.83 333.093 1516.62 333.093C1507.42 333.093 1499.96 340.556 1499.96 349.767C1499.96 358.979 1492.5 366.441 1483.29 366.441C1474.08 366.441 1466.63 373.904 1466.63 383.115C1466.63 392.326 1459.17 399.789 1449.96 399.789C1440.75 399.789 1433.29 407.252 1433.29 416.463C1433.29 425.674 1425.83 433.137 1416.63 433.137C1407.42 433.137 1399.96 425.67 1399.96 416.463C1399.96 407.256 1392.5 399.789 1383.29 399.789C1374.09 399.789 1366.63 392.322 1366.63 383.115C1366.63 373.909 1359.17 366.441 1349.96 366.441C1340.75 366.441 1333.3 373.904 1333.3 383.115C1333.3 392.326 1325.84 399.789 1316.63 399.789C1307.42 399.789 1299.96 392.322 1299.96 383.115C1299.96 373.909 1292.5 366.441 1283.3 366.441C1274.09 366.441 1266.63 373.904 1266.63 383.115C1266.63 392.326 1259.17 399.789 1249.96 399.789C1240.76 399.789 1233.3 407.252 1233.3 416.463C1233.3 425.674 1225.84 433.137 1216.63 433.137C1207.42 433.137 1199.97 425.67 1199.97 416.463C1199.97 407.256 1192.51 399.789 1183.3 399.789C1174.09 399.789 1166.64 407.252 1166.64 416.463C1166.64 425.674 1159.17 433.137 1149.97 433.137C1140.76 433.137 1133.3 425.67 1133.3 416.463C1133.3 407.256 1125.84 399.789 1116.63 399.789C1107.43 399.789 1099.97 392.322 1099.97 383.115C1099.97 373.909 1092.51 366.441 1083.3 366.441C1074.09 366.441 1066.64 373.904 1066.64 383.115C1066.64 392.326 1059.18 399.789 1049.97 399.789C1040.76 399.789 1033.31 392.322 1033.31 383.115C1033.31 373.909 1025.85 366.441 1016.64 366.441C1007.43 366.441 999.973 358.974 999.973 349.767C999.973 340.561 992.513 333.093 983.305 333.093C974.096 333.093 966.641 340.556 966.641 349.767C966.641 358.979 959.18 366.441 949.972 366.441C940.764 366.441 933.308 373.904 933.308 383.115C933.308 392.326 925.848 399.789 916.64 399.789C907.431 399.789 899.976 392.322 899.976 383.115C899.976 373.909 892.515 366.441 883.307 366.441C874.099 366.441 866.643 373.904 866.643 383.115C866.643 392.326 859.183 399.789 849.975 399.789C840.767 399.789 833.311 407.252 833.311 416.463C833.311 425.674 825.851 433.137 816.642 433.137C807.434 433.137 799.978 425.67 799.978 416.463C799.978 407.256 792.518 399.789 783.31 399.789C774.102 399.789 766.646 407.252 766.646 416.463C766.646 425.674 759.186 433.137 749.977 433.137C740.769 433.137 733.314 425.67 733.314 416.463C733.314 407.256 725.853 399.789 716.645 399.789C707.437 399.789 699.981 392.322 699.981 383.115C699.981 373.909 692.521 366.441 683.313 366.441C674.104 366.441 666.649 373.904 666.649 383.115C666.649 392.326 659.188 399.789 649.98 399.789C640.772 399.789 633.316 392.322 633.316 383.115C633.316 373.909 625.856 366.441 616.648 366.441C607.44 366.441 599.984 373.904 599.984 383.115C599.984 392.326 592.523 399.789 583.315 399.789C574.107 399.789 566.651 407.252 566.651 416.463C566.651 425.674 559.191 433.137 549.983 433.137C540.775 433.137 533.319 425.67 533.319 416.463C533.319 407.256 525.859 399.789 516.65 399.789C507.442 399.789 499.986 407.252 499.986 416.463C499.986 425.674 492.526 433.137 483.318 433.137C474.11 433.137 466.654 425.67 466.654 416.463C466.654 407.256 459.194 399.789 449.986 399.789C440.777 399.789 433.322 392.322 433.322 383.115C433.322 373.909 425.861 366.441 416.653 366.441C407.445 366.441 399.989 373.904 399.989 383.115C399.989 392.326 392.529 399.789 383.321 399.789C374.113 399.789 366.657 392.322 366.657 383.115C366.657 373.909 359.196 366.441 349.988 366.441C340.78 366.441 333.324 358.974 333.324 349.767C333.324 340.561 325.864 333.093 316.656 333.093C307.448 333.093 299.992 340.556 299.992 349.767C299.992 358.979 292.532 366.441 283.323 366.441C274.115 366.441 266.659 373.904 266.659 383.115C266.659 392.326 259.199 399.789 249.991 399.789C240.783 399.789 233.327 392.322 233.327 383.115C233.327 373.909 225.867 366.441 216.659 366.441C207.45 366.441 199.995 373.904 199.995 383.115C199.995 392.326 192.534 399.789 183.326 399.789C174.118 399.789 166.662 392.322 166.662 383.115C166.662 373.909 159.202 366.441 149.994 366.441C140.785 366.441 133.33 373.904 133.33 383.115C133.33 392.326 125.869 399.789 116.661 399.789C107.453 399.789 99.9973 407.252 99.9973 416.463C99.9973 425.674 92.537 433.137 83.3288 433.137C74.1206 433.137 66.6649 425.67 66.6649 416.463C66.6649 407.256 59.2046 399.789 49.9964 399.789C40.7882 399.789 33.3324 407.252 33.3324 416.463C33.3324 425.674 25.8721 433.137 16.6639 433.137C7.45576 433.137 0 425.67 0 416.463C0 407.256 7.46031 399.789 16.6639 399.789C25.8676 399.789 33.3324 392.322 33.3324 383.115C33.3324 373.909 40.7927 366.441 49.9964 366.441C59.2 366.441 66.6649 373.904 66.6649 383.115C66.6649 392.326 74.1252 399.789 83.3288 399.789C92.5324 399.789 99.9973 392.322 99.9973 383.115C99.9973 373.909 107.458 366.441 116.661 366.441C125.865 366.441 133.33 358.974 133.33 349.767C133.33 340.561 140.79 333.093 149.994 333.093C159.197 333.093 166.662 340.556 166.662 349.767C166.662 358.979 174.122 366.441 183.326 366.441C192.53 366.441 199.995 358.974 199.995 349.767C199.995 340.561 207.455 333.093 216.659 333.093C225.862 333.093 233.327 340.556 233.327 349.767C233.327 358.979 240.787 366.441 249.991 366.441C259.195 366.441 266.659 358.974 266.659 349.767C266.659 340.561 274.12 333.093 283.323 333.093C292.527 333.093 299.992 325.626 299.992 316.42C299.992 307.213 307.452 299.746 316.656 299.746C325.859 299.746 333.324 307.208 333.324 316.42C333.324 325.631 340.785 333.093 349.988 333.093C359.192 333.093 366.657 340.556 366.657 349.767C366.657 358.979 374.117 366.441 383.321 366.441C392.524 366.441 399.989 358.974 399.989 349.767C399.989 340.561 407.45 333.093 416.653 333.093C425.857 333.093 433.322 340.556 433.322 349.767C433.322 358.979 440.782 366.441 449.986 366.441C459.189 366.441 466.654 373.904 466.654 383.115C466.654 392.326 474.114 399.789 483.318 399.789C492.522 399.789 499.986 392.322 499.986 383.115C499.986 373.909 507.447 366.441 516.65 366.441C525.854 366.441 533.319 373.904 533.319 383.115C533.319 392.326 540.779 399.789 549.983 399.789C559.187 399.789 566.651 392.322 566.651 383.115C566.651 373.909 574.112 366.441 583.315 366.441C592.519 366.441 599.984 358.974 599.984 349.767C599.984 340.561 607.444 333.093 616.648 333.093C625.851 333.093 633.316 340.556 633.316 349.767C633.316 358.979 640.777 366.441 649.98 366.441C659.184 366.441 666.649 358.974 666.649 349.767C666.649 340.561 674.109 333.093 683.313 333.093C692.516 333.093 699.981 340.556 699.981 349.767C699.981 358.979 707.441 366.441 716.645 366.441C725.849 366.441 733.314 373.904 733.314 383.115C733.314 392.326 740.774 399.789 749.977 399.789C759.181 399.789 766.646 392.322 766.646 383.115C766.646 373.909 774.106 366.441 783.31 366.441C792.514 366.441 799.978 373.904 799.978 383.115C799.978 392.326 807.439 399.789 816.642 399.789C825.846 399.789 833.311 392.322 833.311 383.115C833.311 373.909 840.771 366.441 849.975 366.441C859.178 366.441 866.643 358.974 866.643 349.767C866.643 340.561 874.104 333.093 883.307 333.093C892.511 333.093 899.976 340.556 899.976 349.767C899.976 358.979 907.436 366.441 916.64 366.441C925.843 366.441 933.308 358.974 933.308 349.767C933.308 340.561 940.768 333.093 949.972 333.093C959.176 333.093 966.641 325.626 966.641 316.42C966.641 307.213 974.101 299.746 983.305 299.746C992.508 299.746 999.973 307.208 999.973 316.42C999.973 325.631 1007.43 333.093 1016.64 333.093C1025.84 333.093 1033.31 340.556 1033.31 349.767C1033.31 358.979 1040.77 366.441 1049.97 366.441C1059.17 366.441 1066.64 358.974 1066.64 349.767C1066.64 340.561 1074.1 333.093 1083.3 333.093C1092.51 333.093 1099.97 340.556 1099.97 349.767C1099.97 358.979 1107.43 366.441 1116.63 366.441C1125.84 366.441 1133.3 373.904 1133.3 383.115C1133.3 392.326 1140.76 399.789 1149.97 399.789C1159.17 399.789 1166.64 392.322 1166.64 383.115C1166.64 373.909 1174.1 366.441 1183.3 366.441C1192.5 366.441 1199.97 373.904 1199.97 383.115C1199.97 392.326 1207.43 399.789 1216.63 399.789C1225.84 399.789 1233.3 392.322 1233.3 383.115C1233.3 373.909 1240.76 366.441 1249.96 366.441C1259.17 366.441 1266.63 358.974 1266.63 349.767C1266.63 340.561 1274.09 333.093 1283.3 333.093C1292.5 333.093 1299.96 340.556 1299.96 349.767C1299.96 358.979 1307.43 366.441 1316.63 366.441C1325.83 366.441 1333.3 358.974 1333.3 349.767C1333.3 340.561 1340.76 333.093 1349.96 333.093C1359.16 333.093 1366.63 340.556 1366.63 349.767C1366.63 358.979 1374.09 366.441 1383.29 366.441C1392.5 366.441 1399.96 373.904 1399.96 383.115C1399.96 392.326 1407.42 399.789 1416.63 399.789C1425.83 399.789 1433.29 392.322 1433.29 383.115C1433.29 373.909 1440.75 366.441 1449.96 366.441C1459.16 366.441 1466.63 358.974 1466.63 349.767C1466.63 340.561 1474.09 333.093 1483.29 333.093C1492.49 333.093 1499.96 325.626 1499.96 316.42C1499.96 307.213 1507.42 299.746 1516.62 299.746C1525.83 299.746 1533.29 307.208 1533.29 316.42C1533.29 325.631 1540.75 333.093 1549.96 333.093C1559.16 333.093 1566.62 340.556 1566.62 349.767C1566.62 358.979 1574.08 366.441 1583.29 366.441C1592.49 366.441 1599.96 358.974 1599.96 349.767C1599.96 340.561 1607.42 333.093 1616.62 333.093C1625.82 333.093 1633.29 325.626 1633.29 316.42C1633.29 307.213 1640.75 299.746 1649.95 299.746C1659.16 299.746 1666.62 292.278 1666.62 283.072C1666.62 273.865 1674.08 266.398 1683.29 266.398C1692.49 266.398 1699.95 273.861 1699.95 283.072C1699.95 292.283 1707.41 299.746 1716.62 299.746C1725.82 299.746 1733.29 292.278 1733.29 283.072C1733.29 273.865 1740.75 266.398 1749.95 266.398C1759.15 266.398 1766.62 258.93 1766.62 249.724C1766.62 240.517 1774.08 233.05 1783.28 233.05C1792.49 233.05 1799.95 240.513 1799.95 249.724C1799.95 258.935 1807.41 266.398 1816.62 266.398C1825.82 266.398 1833.28 258.93 1833.28 249.724C1833.28 240.517 1840.74 233.05 1849.95 233.05C1859.15 233.05 1866.62 225.583 1866.62 216.376C1866.62 207.169 1874.08 199.702 1883.28 199.702C1892.48 199.702 1899.95 207.165 1899.95 216.376C1899.95 225.587 1907.41 233.05 1916.61 233.05C1925.82 233.05 1933.28 225.583 1933.28 216.376C1933.28 207.169 1940.74 199.702 1949.95 199.702C1959.15 199.702 1966.61 192.235 1966.61 183.028C1966.61 173.822 1974.07 166.354 1983.28 166.354C1992.48 166.354 1999.95 173.817 1999.95 183.028Z" fill="#CBE0C1"/>
</svg>
